<svg width="617" height="153" viewBox="0 0 617 153" fill="none" xmlns="http://www.w3.org/2000/svg">
<path d="M389 98.5562L540.566 113.541L615.498 98.5562L617.008 42.5765L389 98.5562Z" fill="#F2E8C8"/>
<path d="M260.838 84.7512L250.442 84.786C248.079 81.318 243.713 78.9827 238.725 79.0001C231.315 79.035 225.266 84.1935 225.005 90.5894L242.11 90.5197L252.325 90.4848L267.627 90.4326C267.507 87.2782 264.523 84.7512 260.838 84.7512Z" fill="#F7F9ED"/>
<path d="M290.505 56.4819L304.285 56.5441C307.418 50.3511 313.205 46.181 319.817 46.2121C329.64 46.2743 337.658 55.486 338.004 66.9073L315.33 66.7828L301.789 66.7206L281.504 66.6272C281.664 60.9944 285.62 56.4819 290.505 56.4819Z" fill="#F7F9ED"/>
<path d="M478.78 66.8995C476.192 69.3739 470.717 68.9765 470.717 68.9765C470.717 68.9765 469.423 64.575 472.011 62.1005C474.598 59.6261 480.074 60.0235 480.074 60.0235C480.074 60.0235 481.358 64.425 478.78 66.8995Z" fill="#CC691E"/>
<path d="M0 153L616.729 151.415V82.1037C613.463 80.8915 607.23 80.0226 600.209 80.0007C596.229 79.9861 592.174 80.2124 588.645 80.7017L548.846 86.1929C543.628 86.9085 536.832 87.0034 531.162 86.4338L501.839 83.4911C495.231 82.8266 487.271 82.9142 481.114 83.7247L0.037554 147.355V153H0Z" fill="#F2D88A"/>
<path d="M554.84 153L552.701 52H540.498L540 75.3232L535.307 73.4837L516.134 57.8754L507.84 63.3473L528.327 80.0267L539.809 84.5128L538.358 153H554.84Z" fill="#9E4927"/>
<path opacity="0.61" d="M554.84 153L553.201 52H543.855L543.473 75.3232L539.879 73.4837L525.193 57.8754L518.84 63.3473L534.532 80.0267L543.327 84.5128L542.216 153H554.84Z" fill="url(#paint0_linear_187_824)"/>
<path d="M594.65 28.2818C591.59 27.7829 588.467 27.8092 585.645 28.2556C587.351 27.7172 588.695 26.8704 589.305 25.7937C590.628 23.4632 588.043 20.975 583.525 20.2398C582.739 20.115 581.954 20.0494 581.168 20.0362C582.605 19.1237 583.732 18.0471 584.425 16.8391C587.237 11.8957 581.757 6.62404 572.183 5.06815C566.042 4.06371 559.714 4.84494 555.217 6.83412C554.193 3.97836 550.223 1.49024 544.516 0.558021C536.803 -0.70245 528.739 1.35238 525.937 5.16662C521.78 2.0417 514.977 0 507.264 0C494.599 0 484.322 5.50143 484.322 12.283C484.322 13.1299 484.477 13.9571 484.787 14.7515C484.456 14.7383 484.136 14.7252 483.805 14.7252C474.314 14.7252 466.622 18.848 466.622 23.9293C466.622 27.5137 470.457 30.6058 476.03 32.1289C470.375 34.059 466.622 37.4399 466.622 41.3001C466.622 47.3071 475.72 52.1783 486.938 52.1783C489.678 52.1783 492.293 51.8828 494.682 51.3577C494.444 51.8106 494.299 52.2833 494.299 52.7757C494.299 55.6117 498.59 57.9095 503.883 57.9095C506.323 57.9095 508.546 57.4171 510.242 56.6096C508.36 58.0867 507.254 59.8724 507.254 61.7959C507.254 66.8772 514.946 71 524.437 71C533.929 71 541.621 66.8772 541.621 61.7959C541.621 61.0344 541.425 60.2991 541.104 59.5901C545.498 59.229 549.344 57.9883 551.981 56.196C554.793 57.2661 558.225 57.9095 561.937 57.9095C571.428 57.9095 579.121 53.7867 579.121 48.7054C579.121 47.5894 578.728 46.5258 578.045 45.5345C579.979 44.7927 581.571 43.8079 582.646 42.6263C583.69 42.9545 584.817 43.2302 586.027 43.4272C594.123 44.7467 602.611 42.4293 604.989 38.2474C607.388 34.059 602.756 29.6014 594.65 28.2818Z" fill="#CC691E"/>
<path d="M595.729 28.8835C592.69 28.3916 589.591 28.4175 586.788 28.8576C588.482 28.3269 589.816 27.4919 590.422 26.4304C591.736 24.1327 589.17 21.6796 584.684 20.9547C583.904 20.8317 583.124 20.767 582.344 20.754C583.77 19.8544 584.889 18.7929 585.577 17.6019C588.369 12.7282 582.929 7.53074 573.424 5.99676C567.326 5.00647 561.045 5.7767 556.579 7.73786C555.563 4.92233 551.622 2.46926 545.955 1.55016C538.298 0.307443 530.292 2.33333 527.51 6.09385C523.384 3.01294 516.629 1 508.972 1C496.398 1 486.195 6.42395 486.195 13.11C486.195 13.945 486.349 14.7605 486.657 15.5437C486.328 15.5307 486.01 15.5178 485.681 15.5178C476.258 15.5178 468.622 19.5825 468.622 24.5922C468.622 28.1262 472.43 31.1748 477.962 32.6764C472.348 34.5793 468.622 37.9126 468.622 41.7184C468.622 47.6408 477.654 52.4434 488.792 52.4434C491.512 52.4434 494.109 52.1521 496.48 51.6343C496.244 52.0809 496.1 52.5469 496.1 53.0324C496.1 55.8285 500.36 58.0938 505.615 58.0938C508.038 58.0938 510.245 57.6084 511.928 56.8123C510.06 58.2686 508.962 60.0291 508.962 61.9256C508.962 66.9353 516.599 71 526.022 71C535.444 71 543.081 66.9353 543.081 61.9256C543.081 61.1748 542.886 60.4498 542.568 59.7508C546.931 59.3948 550.749 58.1715 553.367 56.4045C556.159 57.4595 559.566 58.0938 563.251 58.0938C572.674 58.0938 580.311 54.0291 580.311 49.0194C580.311 47.9191 579.921 46.8705 579.244 45.8932C581.163 45.1618 582.744 44.1909 583.812 43.0259C584.848 43.3495 585.967 43.6214 587.168 43.8155C595.205 45.1165 603.633 42.8317 605.993 38.7087C608.375 34.5793 603.776 30.1845 595.729 28.8835Z" fill="url(#paint1_linear_187_824)"/>
<path d="M360.526 134.982L332.288 144.668L280.823 127L208 152H423L360.526 134.982Z" fill="#CC691E"/>
<defs>
<linearGradient id="paint0_linear_187_824" x1="532.834" y1="35.8339" x2="543.368" y2="114.693" gradientUnits="userSpaceOnUse">
<stop stop-color="#040006"/>
<stop offset="1" stop-color="#040006" stop-opacity="0"/>
</linearGradient>
<linearGradient id="paint1_linear_187_824" x1="442.838" y1="65.2841" x2="505.504" y2="4.28756" gradientUnits="userSpaceOnUse">
<stop offset="0.4372" stop-color="#FFF459" stop-opacity="0.53"/>
<stop offset="0.9596" stop-color="#FFF459" stop-opacity="0"/>
</linearGradient>
</defs>
</svg>
