<svg width="358" height="176" viewBox="0 0 358 176" fill="none" xmlns="http://www.w3.org/2000/svg">
<mask id="mask0_187_822" style="mask-type:alpha" maskUnits="userSpaceOnUse" x="0" y="0" width="358" height="176">
<rect width="358" height="176" rx="10" fill="url(#paint0_linear_187_822)"/>
</mask>
<g mask="url(#mask0_187_822)">
<path d="M371 0H-5.00024V228H371V0Z" fill="#4FA4C0"/>
<path d="M371 0H-5.00024V228H371V0Z" fill="url(#paint1_linear_187_822)"/>
<path d="M371 2H-5.00024V228H371V2Z" fill="#4FA4C0"/>
<path d="M360 2H0.999756V189H360V2Z" fill="url(#paint2_linear_187_822)"/>
<path d="M304.74 156.386L242.299 184.874L82.7814 114.564C57.0921 103.232 27.079 106.897 5.02347 124.053L-5.11887 131.945L-303.547 396.768H671.612L379.761 163.671C374.172 159.196 367.825 155.756 360.994 153.463C342.549 147.279 322.403 148.336 304.74 156.386Z" fill="#A5C0EA"/>
<path d="M360.97 153.463C342.549 147.279 322.402 148.336 304.739 156.386L242.298 184.874L82.7805 114.564C70.0394 108.943 56.2403 107.032 42.8782 108.606L94.0958 176.937L77.7439 193.53L216.494 320.118L348.965 234.317L317.618 211.855L366.858 155.441L360.97 153.463Z" fill="#92B3EA"/>
<path d="M304.812 108.324L242.317 129.736L82.6618 76.8899C56.9503 68.3724 26.9114 71.127 4.83685 84.0216L-5.31424 89.9535L-304 289H672L379.897 113.799C374.304 110.436 367.951 107.85 361.115 106.127C342.654 101.479 322.49 102.273 304.812 108.324Z" fill="url(#paint3_linear_187_822)"/>
<path d="M254.076 148.77L119.646 107.82C87.1656 97.9151 51.4895 97.4095 18.5718 106.36C2.82558 110.648 -11.9782 117.014 -25.1958 125.215L-233 254H569L431.261 187.754C391.7 168.73 346.967 157.982 301.061 156.484C285.016 155.96 269.155 153.357 254.076 148.77Z" fill="white"/>
<path d="M301.313 156.186C285.26 155.66 269.413 153.049 254.348 148.447L120.045 107.364C107.069 103.4 93.5886 100.958 79.993 100L64.7668 129.455C59.5536 139.524 61.8272 151.133 70.5771 159.38L171.006 254H569L431.39 187.538C391.866 168.472 347.175 157.689 301.313 156.186Z" fill="#CEE0FF"/>
<path d="M-30.6472 228.227L16.1547 113.309L73.812 228.227H-30.6472Z" fill="#2F497C"/>
<path d="M37.5439 228.228L86.7147 92.7356L142.026 228.228H37.5439Z" fill="#2F497C"/>
<path d="M52.6076 99.5936L27.2173 149.015H39.9125L-0.0129395 228.228H100.72L73.4903 163.922L90.7391 169.048L52.6076 99.5936Z" fill="#627BB3"/>
<path d="M-10.5464 99.5936L-35.9598 149.015H-23.2416L-63.167 228.228H37.5434L10.3362 163.922L27.5621 169.048L-10.5464 99.5936Z" fill="#496AAA"/>
<path d="M162.034 121.875L141.013 162.752H151.523L118.521 228.227H201.798L179.283 175.052L193.542 179.301L162.034 121.875Z" fill="#2F79AA"/>
<path d="M117.326 121.875L96.328 162.752H106.815L73.8125 228.227H157.09L134.575 175.052L148.834 179.301L117.326 121.875Z" fill="#496AAA"/>
<path d="M299.381 228.228L333.074 145.552L374.54 228.228H299.381Z" fill="#2F497C"/>
<path d="M348.459 228.228L383.831 130.757L423.619 228.228H348.459Z" fill="#2F497C"/>
<path d="M359.293 135.681L341.009 171.252H350.162L321.437 228.228H393.905L374.311 181.955L386.707 185.664L359.293 135.681Z" fill="#627BB3"/>
<path d="M313.848 135.681L295.564 171.252H304.717L275.992 228.228H348.46L328.866 181.955L341.285 185.664L313.848 135.681Z" fill="#496AAA"/>
<rect x="358" y="176" width="359" height="91" transform="rotate(-180 358 176)" fill="url(#paint4_linear_187_822)"/>
</g>
<defs>
<linearGradient id="paint0_linear_187_822" x1="179" y1="51.1954" x2="179" y2="267.174" gradientUnits="userSpaceOnUse">
<stop stop-color="#67548B"/>
<stop offset="1" stop-color="#EDC59F"/>
</linearGradient>
<linearGradient id="paint1_linear_187_822" x1="184.302" y1="-53.0801" x2="184.051" y2="122.027" gradientUnits="userSpaceOnUse">
<stop offset="0.4372" stop-color="#9477FF" stop-opacity="0.53"/>
<stop offset="0.9596" stop-color="#9477FF" stop-opacity="0"/>
</linearGradient>
<linearGradient id="paint2_linear_187_822" x1="180.5" y1="19.6179" x2="180.5" y2="99.4478" gradientUnits="userSpaceOnUse">
<stop stop-color="#7F88ED"/>
<stop offset="0.9596" stop-color="#96B0ED"/>
</linearGradient>
<linearGradient id="paint3_linear_187_822" x1="184" y1="33.9566" x2="185.08" y2="181.382" gradientUnits="userSpaceOnUse">
<stop stop-color="#5B5FB3" stop-opacity="0.53"/>
<stop offset="0.9596" stop-color="#7E5AFF" stop-opacity="0"/>
</linearGradient>
<linearGradient id="paint4_linear_187_822" x1="542.044" y1="176" x2="538.629" y2="267.042" gradientUnits="userSpaceOnUse">
<stop stop-color="#3B4982"/>
<stop offset="1" stop-color="#2745C1" stop-opacity="0"/>
</linearGradient>
</defs>
</svg>
