<svg width="1352" height="696" viewBox="0 0 1352 696" fill="none" xmlns="http://www.w3.org/2000/svg">
<g clip-path="url(#clip0_253_395)">
<path d="M1340 -4H3.50069C-7.54501 -4 -1.99958 4.9543 -1.99958 16V687C-1.99958 698.046 6.95472 707 18.0004 707H1340C1351.05 707 1360 698.046 1360 687V16C1360 4.9543 1351.05 -4 1340 -4Z" fill="#03174C"/>
<g filter="url(#filter0_f_253_395)">
<path d="M1212.19 125.201C1226.2 125.201 1237.56 113.842 1237.56 99.8309C1237.56 85.8195 1226.2 74.4609 1212.19 74.4609C1198.18 74.4609 1186.82 85.8195 1186.82 99.8309C1186.82 113.842 1198.18 125.201 1212.19 125.201Z" fill="#D3D4DE"/>
<path d="M1203.43 92.7844C1206 92.7844 1208.09 90.6992 1208.09 88.1271C1208.09 85.5549 1206 83.4697 1203.43 83.4697C1200.86 83.4697 1198.77 85.5549 1198.77 88.1271C1198.77 90.6992 1200.86 92.7844 1203.43 92.7844Z" fill="#C5C6D0"/>
<path d="M1222.66 106.369C1226.39 106.369 1229.41 103.346 1229.41 99.6169C1229.41 95.8877 1226.39 92.8645 1222.66 92.8645C1218.93 92.8645 1215.91 95.8877 1215.91 99.6169C1215.91 103.346 1218.93 106.369 1222.66 106.369Z" fill="#F1F1F3"/>
<path fill-rule="evenodd" clip-rule="evenodd" d="M1231.02 116.834C1228.02 120.154 1224.16 122.677 1219.78 124.047C1219.4 123.203 1219.19 122.268 1219.19 121.284C1219.19 117.555 1222.21 114.531 1225.94 114.531C1227.97 114.531 1229.78 115.422 1231.02 116.834Z" fill="#C5C6D0"/>
<path d="M1206.45 118.844C1208.12 118.844 1209.47 117.492 1209.47 115.825C1209.47 114.158 1208.12 112.806 1206.45 112.806C1204.78 112.806 1203.43 114.158 1203.43 115.825C1203.43 117.492 1204.78 118.844 1206.45 118.844Z" fill="#C5C6D0"/>
</g>
<path d="M1214.92 123.414C1228.93 123.414 1240.29 112.056 1240.29 98.0441C1240.29 84.0326 1228.93 72.6741 1214.92 72.6741C1200.91 72.6741 1189.55 84.0326 1189.55 98.0441C1189.55 112.056 1200.91 123.414 1214.92 123.414Z" fill="#D3D4DE"/>
<path d="M1206.16 90.9963C1208.73 90.9963 1210.82 88.9111 1210.82 86.3389C1210.82 83.7668 1208.73 81.6816 1206.16 81.6816C1203.59 81.6816 1201.5 83.7668 1201.5 86.3389C1201.5 88.9111 1203.59 90.9963 1206.16 90.9963Z" fill="#C5C6D0"/>
<path d="M1225.39 104.581C1229.12 104.581 1232.14 101.558 1232.14 97.829C1232.14 94.0998 1229.12 91.0767 1225.39 91.0767C1221.66 91.0767 1218.64 94.0998 1218.64 97.829C1218.64 101.558 1221.66 104.581 1225.39 104.581Z" fill="#F1F1F3"/>
<path fill-rule="evenodd" clip-rule="evenodd" d="M1233.75 115.046C1230.75 118.367 1226.88 120.89 1222.51 122.259C1222.13 121.416 1221.92 120.481 1221.92 119.497C1221.92 115.767 1224.94 112.744 1228.67 112.744C1230.69 112.744 1232.51 113.635 1233.75 115.046Z" fill="#C5C6D0"/>
<path d="M1209.17 117.057C1210.84 117.057 1212.19 115.705 1212.19 114.038C1212.19 112.371 1210.84 111.019 1209.17 111.019C1207.5 111.019 1206.15 112.371 1206.15 114.038C1206.15 115.705 1207.5 117.057 1209.17 117.057Z" fill="#C5C6D0"/>
<path d="M1232.14 114.038C1246.15 114.038 1257.51 102.679 1257.51 88.6679C1257.51 74.6564 1246.15 63.2979 1232.14 63.2979C1218.13 63.2979 1206.77 74.6564 1206.77 88.6679C1206.77 102.679 1218.13 114.038 1232.14 114.038Z" fill="#03174C"/>
<path opacity="0.3" d="M33.1797 400.237C124.639 312.044 235.273 243.841 355.151 201.752C361.175 199.633 367.51 197.556 373.824 198.478C380.137 199.401 386.354 204.323 386.491 210.714C386.603 216.325 382.292 220.916 378.265 224.829C366.024 236.726 353.794 248.634 341.553 260.531C332.553 269.291 322.798 281.825 328.442 293.043C332.163 300.419 341.532 303.442 349.71 302.297C357.888 301.153 365.188 296.752 372.277 292.52C372.277 292.52 643.913 158.136 743.23 140.118C641.322 155.308 546.33 186.346 453.406 230.848C445.962 234.417 433.982 238.796 425.729 239.191C417.476 239.585 408.412 235.723 405.384 228.043C400.773 216.361 411.632 204.754 421.396 196.86C434.669 186.12 447.932 175.379 461.205 164.639C465.569 161.109 470.287 156.93 470.675 151.333C471.128 144.966 465.385 139.497 459.175 138.005C452.965 136.513 446.475 138.009 440.284 139.567C317.071 170.583 149.496 252.051 42.8077 353.331L33.1797 400.237Z" fill="#554872"/>
<path opacity="0.3" d="M792 371.683C864.94 283.365 953.12 215.01 1048.62 172.756C1053.42 170.628 1058.46 168.542 1063.49 169.456C1068.51 170.371 1073.46 175.284 1073.56 181.675C1073.64 187.286 1070.2 191.882 1066.99 195.801C1057.23 207.715 1047.47 219.639 1037.71 231.553C1030.53 240.325 1022.75 252.873 1027.23 264.083C1030.18 271.453 1037.63 274.464 1044.15 273.308C1050.66 272.152 1056.48 267.741 1062.13 263.499C1062.13 263.499 1278.58 128.742 1357.67 110.587C1276.52 125.918 1200.85 157.086 1126.8 201.716C1120.87 205.296 1111.33 209.691 1104.76 210.097C1098.19 210.502 1090.97 206.653 1088.57 198.977C1084.92 187.302 1093.58 175.68 1101.36 167.773C1111.95 157.014 1122.52 146.256 1133.1 135.497C1136.58 131.96 1140.35 127.776 1140.66 122.178C1141.03 115.81 1136.47 110.349 1131.52 108.866C1126.58 107.382 1121.41 108.887 1116.48 110.454C1018.34 141.64 884.81 223.338 799.73 324.765L792 371.683Z" fill="#554872"/>
<path opacity="0.3" d="M375.125 710.47C376.364 676.52 585.145 708.11 552.795 697.75C463.486 669.15 477.303 584.02 538.959 525.65C576.199 490.4 680.48 431.65 714.3 402.828C722.33 395.992 730.4 387.766 731.7 377.295C733.34 364.116 723.18 351.747 711.01 346.424C689.97 337.221 661.5 340.449 639.349 342.899C605.363 346.649 572.181 355.625 539.416 365.103C490.048 379.399 442.235 398.916 396.496 422.287C396.074 422.504 395.663 422.711 395.252 422.928C338.272 452.16 284.807 488.28 236.61 530.46C217.959 546.78 201.582 565.54 187.832 586.16C286.011 490.66 425.594 415.354 578.457 375.417C590.259 372.337 602.419 369.42 614.479 369.421C626.539 369.423 638.666 372.845 644.037 380.092C650.142 388.323 647.807 400.888 637.808 408.1C628.15 415.065 617.546 423.023 606.003 429.39C548.065 461.29 493.654 496.7 443.694 534.98C421.117 552.28 399.254 570.36 383.145 590.74C367.047 611.12 356.961 634.14 359.723 655.95L375.125 710.47Z" fill="#554872"/>
<path opacity="0.3" d="M-6.41211 633.66C-6.43111 632.02 164.646 519.41 337.152 449.68C264.562 490.82 167.47 552.84 57.0309 686.61C57.1219 686.51 38.4639 669.96 36.7639 668.44C30.7299 663.03 -6.36611 637.25 -6.41211 633.66Z" fill="#554872"/>
<path opacity="0.4" d="M484.04 210.92C484.04 211.886 484.824 212.67 485.79 212.67C486.757 212.67 487.54 211.886 487.54 210.92C487.54 209.953 486.757 209.17 485.79 209.17C484.824 209.17 484.04 209.953 484.04 210.92Z" fill="white"/>
<path opacity="0.4" d="M409.87 396.17C409.87 397.136 410.654 397.92 411.62 397.92C412.587 397.92 413.37 397.136 413.37 396.17C413.37 395.203 412.587 394.42 411.62 394.42C410.654 394.42 409.87 395.203 409.87 396.17Z" fill="white"/>
<path opacity="0.4" d="M143.44 405.42C143.44 406.386 144.224 407.17 145.19 407.17C146.157 407.17 146.94 406.386 146.94 405.42C146.94 404.453 146.157 403.67 145.19 403.67C144.224 403.67 143.44 404.453 143.44 405.42Z" fill="white"/>
<path opacity="0.4" d="M181.181 574.05C181.181 575.02 181.964 575.8 182.931 575.8C183.897 575.8 184.681 575.02 184.681 574.05C184.681 573.08 183.897 572.3 182.931 572.3C181.964 572.3 181.181 573.08 181.181 574.05Z" fill="white"/>
<path opacity="0.4" d="M128.36 639.85C128.36 640.82 129.144 641.6 130.11 641.6C131.077 641.6 131.86 640.82 131.86 639.85C131.86 638.88 131.077 638.1 130.11 638.1C129.144 638.1 128.36 638.88 128.36 639.85Z" fill="white"/>
<path opacity="0.4" d="M462.08 630.55C462.08 631.52 462.864 632.3 463.83 632.3C464.797 632.3 465.58 631.52 465.58 630.55C465.58 629.58 464.797 628.8 463.83 628.8C462.864 628.8 462.08 629.58 462.08 630.55Z" fill="white"/>
<path opacity="0.4" d="M256.69 522.67C256.69 523.64 257.474 524.42 258.44 524.42C259.407 524.42 260.19 523.64 260.19 522.67C260.19 521.7 259.407 520.92 258.44 520.92C257.474 520.92 256.69 521.7 256.69 522.67Z" fill="white"/>
<path opacity="0.4" d="M245.44 439.33C245.44 440.3 246.224 441.08 247.19 441.08C248.157 441.08 248.94 440.3 248.94 439.33C248.94 438.36 248.157 437.58 247.19 437.58C246.224 437.58 245.44 438.36 245.44 439.33Z" fill="white"/>
<path opacity="0.4" d="M135.69 238.67C135.69 239.636 136.474 240.42 137.44 240.42C138.407 240.42 139.19 239.636 139.19 238.67C139.19 237.703 138.407 236.92 137.44 236.92C136.474 236.92 135.69 237.703 135.69 238.67Z" fill="white"/>
<path opacity="0.4" d="M440.29 337.33C440.29 338.297 441.074 339.08 442.04 339.08C443.007 339.08 443.79 338.297 443.79 337.33C443.79 336.364 443.007 335.58 442.04 335.58C441.074 335.58 440.29 336.364 440.29 337.33Z" fill="white"/>
<path opacity="0.4" d="M474.95 463.33C474.95 464.3 475.734 465.08 476.7 465.08C477.667 465.08 478.45 464.3 478.45 463.33C478.45 462.36 477.667 461.58 476.7 461.58C475.734 461.58 474.95 462.36 474.95 463.33Z" fill="white"/>
<path opacity="0.4" d="M339.44 206.67C339.44 207.636 340.224 208.42 341.19 208.42C342.157 208.42 342.94 207.636 342.94 206.67C342.94 205.703 342.157 204.92 341.19 204.92C340.224 204.92 339.44 205.703 339.44 206.67Z" fill="white"/>
<path opacity="0.4" d="M272.44 217.92C272.44 218.886 273.224 219.67 274.19 219.67C275.157 219.67 275.94 218.886 275.94 217.92C275.94 216.953 275.157 216.17 274.19 216.17C273.224 216.17 272.44 216.953 272.44 217.92Z" fill="white"/>
<path opacity="0.7" d="M406.25 457.6L407.37 463.61L408.49 457.6L410.72 459.14L409.19 456.9L415.2 455.78L409.19 454.67L410.72 452.43L408.49 453.96L407.37 447.96L406.25 453.96L404.01 452.43L405.55 454.67L399.54 455.78L405.55 456.9L404.01 459.14L406.25 457.6Z" fill="#E1D1FF"/>
<path opacity="0.7" d="M265.441 632.1L266.561 638.1L267.681 632.1L269.921 633.63L268.381 631.39L274.391 630.28L268.381 629.16L269.921 626.92L267.681 628.46L266.561 622.45L265.441 628.46L263.211 626.92L264.741 629.16L258.731 630.28L264.741 631.39L263.211 633.63L265.441 632.1Z" fill="#E1D1FF"/>
<path opacity="0.7" d="M216.67 316.94L217.78 322.95L218.9 316.94L221.14 318.47L219.6 316.24L225.61 315.12L219.6 314L221.14 311.76L218.9 313.3L217.78 307.29L216.67 313.3L214.43 311.76L215.96 314L209.95 315.12L215.96 316.24L214.43 318.47L216.67 316.94Z" fill="#E1D1FF"/>
<path opacity="0.7" d="M172.19 364.67L173.31 370.68L174.42 364.67L176.66 366.2L175.13 363.96L181.13 362.85L175.13 361.73L176.66 359.49L174.42 361.03L173.31 355.02L172.19 361.03L169.95 359.49L171.49 361.73L165.48 362.85L171.49 363.96L169.95 366.2L172.19 364.67Z" fill="#E1D1FF"/>
<path opacity="0.7" d="M443.09 266.66L444.21 272.67L445.33 266.66L447.57 268.2L446.03 265.96L452.04 264.84L446.03 263.72L447.57 261.49L445.33 263.02L444.21 257.01L443.09 263.02L440.86 261.49L442.39 263.72L436.38 264.84L442.39 265.96L440.86 268.2L443.09 266.66Z" fill="#E1D1FF"/>
<path opacity="0.7" d="M438.28 132.67L439.4 138.68L440.52 132.67L442.76 134.2L441.22 131.96L447.23 130.85L441.22 129.73L442.76 127.49L440.52 129.03L439.4 123.02L438.28 129.03L436.05 127.49L437.58 129.73L431.57 130.85L437.58 131.96L436.05 134.2L438.28 132.67Z" fill="#E1D1FF"/>
<path opacity="0.7" d="M132.7 117.68L133.82 123.69L134.94 117.68L137.18 119.21L135.64 116.98L141.65 115.86L135.64 114.74L137.18 112.5L134.94 114.04L133.82 108.03L132.7 114.04L130.47 112.5L132 114.74L125.99 115.86L132 116.98L130.47 119.21L132.7 117.68Z" fill="#E1D1FF"/>
<path d="M60.128 315.706C41.36 310.428 44.097 326.263 48.007 326.263C49.613 326.263 52.943 326.654 57 326.654H69.317C84.956 326.654 89.453 325.612 89.649 325.286C91.017 314.924 82.741 315.902 78.31 317.075C79.026 313.23 78.27 305.462 69.512 305.149C60.753 304.837 59.606 312.057 60.128 315.706Z" fill="#1F265E"/>
<path d="M58.1031 125.157C37.0761 119.269 40.1421 136.934 44.5231 136.934C46.3231 136.934 50.0541 137.37 54.5991 137.37H68.3991C85.9211 137.37 90.9591 136.207 91.1791 135.843C92.7121 124.285 83.4391 125.375 78.4741 126.684C79.2781 122.395 78.4301 113.73 68.6171 113.381C58.8041 113.032 57.5191 121.086 58.1031 125.157Z" fill="#1F265E"/>
<path d="M100.616 116.043C100.616 116.043 97.2363 109.613 91.8193 112.941C91.8193 112.941 95.6113 107.664 92.3613 103.768C92.3613 103.768 96.1443 108.145 101.132 106.363C101.132 106.363 97.2103 109.106 100.616 116.043Z" fill="#6D75B0"/>
<path d="M76.1777 90.9899C76.1777 90.9899 79.5817 87.712 76.5197 84.931C76.5197 84.931 80.5047 86.343 82.3497 83.606C82.3497 83.606 80.3007 86.7629 82.3187 89.5569C82.3187 89.5569 79.8937 87.6029 76.1777 90.9899Z" fill="white"/>
<path d="M363.97 83.8821C363.97 83.8821 365.342 91.0161 371.491 89.4001C371.491 89.4001 366.333 93.351 368.314 98.022C368.314 98.022 365.962 92.7371 360.671 92.9971C360.671 92.9971 365.221 91.5081 363.97 83.8821Z" fill="#6D75B0"/>
<path d="M355.609 131.861C355.609 131.861 351.401 134.012 353.526 137.56C353.526 137.56 350.122 135.054 347.562 137.139C347.562 137.139 350.437 134.711 349.315 131.453C349.315 131.453 351.07 134.025 355.609 131.861Z" fill="white"/>
<g filter="url(#filter1_f_253_395)">
<path d="M355.609 131.861C355.609 131.861 351.401 134.012 353.526 137.56C353.526 137.56 350.122 135.054 347.562 137.139C347.562 137.139 350.437 134.711 349.315 131.453C349.315 131.453 351.07 134.025 355.609 131.861Z" fill="white"/>
</g>
<path d="M407.586 153.106C407.586 153.106 403.378 155.258 405.503 158.806C405.503 158.806 402.098 156.3 399.539 158.385C399.539 158.385 402.415 155.957 401.293 152.699C401.293 152.699 403.048 155.271 407.586 153.106Z" fill="#6D75B0"/>
<path opacity="0.4" d="M832.04 237.25C832.04 238.216 832.82 239 833.79 239C834.76 239 835.54 238.216 835.54 237.25C835.54 236.284 834.76 235.5 833.79 235.5C832.82 235.5 832.04 236.284 832.04 237.25Z" fill="white"/>
<path opacity="0.4" d="M757.87 422.5C757.87 423.466 758.65 424.25 759.62 424.25C760.59 424.25 761.37 423.466 761.37 422.5C761.37 421.534 760.59 420.75 759.62 420.75C758.65 420.75 757.87 421.534 757.87 422.5Z" fill="white"/>
<path opacity="0.4" d="M529.181 600.38C529.181 601.35 529.964 602.13 530.931 602.13C531.897 602.13 532.681 601.35 532.681 600.38C532.681 599.41 531.897 598.63 530.931 598.63C529.964 598.63 529.181 599.41 529.181 600.38Z" fill="white"/>
<path opacity="0.4" d="M810.08 656.88C810.08 657.85 810.86 658.63 811.83 658.63C812.8 658.63 813.58 657.85 813.58 656.88C813.58 655.91 812.8 655.13 811.83 655.13C810.86 655.13 810.08 655.91 810.08 656.88Z" fill="white"/>
<path opacity="0.4" d="M604.69 549C604.69 549.97 605.474 550.75 606.44 550.75C607.407 550.75 608.19 549.97 608.19 549C608.19 548.03 607.407 547.25 606.44 547.25C605.474 547.25 604.69 548.03 604.69 549Z" fill="white"/>
<path opacity="0.4" d="M593.44 465.66C593.44 466.63 594.224 467.41 595.19 467.41C596.157 467.41 596.94 466.63 596.94 465.66C596.94 464.69 596.157 463.91 595.19 463.91C594.224 463.91 593.44 464.69 593.44 465.66Z" fill="white"/>
<path opacity="0.4" d="M788.29 363.66C788.29 364.626 789.07 365.41 790.04 365.41C791.01 365.41 791.79 364.626 791.79 363.66C791.79 362.693 791.01 361.91 790.04 361.91C789.07 361.91 788.29 362.693 788.29 363.66Z" fill="white"/>
<path opacity="0.4" d="M822.95 489.66C822.95 490.63 823.73 491.41 824.7 491.41C825.67 491.41 826.45 490.63 826.45 489.66C826.45 488.69 825.67 487.91 824.7 487.91C823.73 487.91 822.95 488.69 822.95 489.66Z" fill="white"/>
<path opacity="0.4" d="M687.439 233C687.439 233.966 688.219 234.75 689.189 234.75C690.159 234.75 690.939 233.966 690.939 233C690.939 232.034 690.159 231.25 689.189 231.25C688.219 231.25 687.439 232.034 687.439 233Z" fill="white"/>
<path opacity="0.4" d="M620.44 244.25C620.44 245.216 621.224 246 622.19 246C623.157 246 623.94 245.216 623.94 244.25C623.94 243.284 623.157 242.5 622.19 242.5C621.224 242.5 620.44 243.284 620.44 244.25Z" fill="white"/>
<path opacity="0.7" d="M754.25 483.93L755.37 489.94L756.49 483.93L758.72 485.47L757.19 483.23L763.2 482.11L757.19 481L758.72 478.76L756.49 480.29L755.37 474.29L754.25 480.29L752.01 478.76L753.55 481L747.54 482.11L753.55 483.23L752.01 485.47L754.25 483.93Z" fill="#E1D1FF"/>
<path opacity="0.7" d="M613.441 658.43L614.561 664.43L615.681 658.43L617.921 659.96L616.381 657.72L622.391 656.61L616.381 655.49L617.921 653.25L615.681 654.79L614.561 648.78L613.441 654.79L611.211 653.25L612.741 655.49L606.731 656.61L612.741 657.72L611.211 659.96L613.441 658.43Z" fill="#E1D1FF"/>
<path opacity="0.7" d="M564.67 343.27L565.78 349.28L566.9 343.27L569.14 344.8L567.6 342.57L573.61 341.45L567.6 340.33L569.14 338.09L566.9 339.63L565.78 333.62L564.67 339.63L562.43 338.09L563.96 340.33L557.95 341.45L563.96 342.57L562.43 344.8L564.67 343.27Z" fill="#E1D1FF"/>
<path opacity="0.7" d="M520.191 391L521.311 397.01L522.421 391L524.661 392.53L523.131 390.29L529.131 389.18L523.131 388.06L524.661 385.82L522.421 387.36L521.311 381.35L520.191 387.36L517.951 385.82L519.491 388.06L513.481 389.18L519.491 390.29L517.951 392.53L520.191 391Z" fill="#E1D1FF"/>
<path opacity="0.7" d="M791.09 292.99L792.21 299L793.33 292.99L795.57 294.53L794.03 292.29L800.04 291.17L794.03 290.05L795.57 287.82L793.33 289.35L792.21 283.34L791.09 289.35L788.86 287.82L790.39 290.05L784.38 291.17L790.39 292.29L788.86 294.53L791.09 292.99Z" fill="#E1D1FF"/>
<path opacity="0.7" d="M786.28 159L787.4 165.01L788.52 159L790.76 160.53L789.22 158.29L795.23 157.18L789.22 156.06L790.76 153.82L788.52 155.36L787.4 149.35L786.28 155.36L784.05 153.82L785.58 156.06L779.57 157.18L785.58 158.29L784.05 160.53L786.28 159Z" fill="#E1D1FF"/>
<path d="M521.155 123.326C523.728 123.326 525.813 121.241 525.813 118.669C525.813 116.097 523.728 114.012 521.155 114.012C518.583 114.012 516.498 116.097 516.498 118.669C516.498 121.241 518.583 123.326 521.155 123.326Z" fill="#C5C6D0"/>
<path fill-rule="evenodd" clip-rule="evenodd" d="M548.747 147.376C545.747 150.697 541.881 153.22 537.505 154.589C537.127 153.746 536.916 152.811 536.916 151.826C536.916 148.097 539.939 145.074 543.668 145.074C545.693 145.074 547.509 145.965 548.747 147.376Z" fill="#C5C6D0"/>
<path d="M711.97 110.212C711.97 110.212 713.34 117.346 719.49 115.73C719.49 115.73 714.33 119.681 716.31 124.353C716.31 124.353 713.96 119.067 708.67 119.327C708.67 119.327 713.22 117.838 711.97 110.212Z" fill="#6D75B0"/>
<path d="M703.61 158.19C703.61 158.19 699.401 160.342 701.531 163.89C701.531 163.89 698.121 161.384 695.561 163.469C695.561 163.469 698.44 161.041 697.32 157.783C697.32 157.783 699.07 160.355 703.61 158.19Z" fill="white"/>
<g filter="url(#filter2_f_253_395)">
<path d="M703.61 158.19C703.61 158.19 699.401 160.342 701.531 163.89C701.531 163.89 698.121 161.384 695.561 163.469C695.561 163.469 698.44 161.041 697.32 157.783C697.32 157.783 699.07 160.355 703.61 158.19Z" fill="white"/>
</g>
<path d="M755.59 179.437C755.59 179.437 751.38 181.588 753.5 185.136C753.5 185.136 750.1 182.63 747.54 184.715C747.54 184.715 750.41 182.287 749.29 179.029C749.29 179.029 751.05 181.601 755.59 179.437Z" fill="#6D75B0"/>
<path opacity="0.4" d="M1234.04 499.21C1234.04 498.24 1234.82 497.46 1235.79 497.46C1236.76 497.46 1237.54 498.24 1237.54 499.21C1237.54 500.18 1236.76 500.96 1235.79 500.96C1234.82 500.96 1234.04 500.18 1234.04 499.21Z" fill="white"/>
<path opacity="0.4" d="M1159.87 313.96C1159.87 312.993 1160.65 312.21 1161.62 312.21C1162.59 312.21 1163.37 312.993 1163.37 313.96C1163.37 314.926 1162.59 315.71 1161.62 315.71C1160.65 315.71 1159.87 314.926 1159.87 313.96Z" fill="white"/>
<path opacity="0.4" d="M931.18 136.08C931.18 135.114 931.96 134.33 932.93 134.33C933.9 134.33 934.68 135.114 934.68 136.08C934.68 137.047 933.9 137.83 932.93 137.83C931.96 137.83 931.18 137.047 931.18 136.08Z" fill="white"/>
<path opacity="0.4" d="M1212.08 79.5801C1212.08 78.6141 1212.86 77.8301 1213.83 77.8301C1214.8 77.8301 1215.58 78.6141 1215.58 79.5801C1215.58 80.5471 1214.8 81.3301 1213.83 81.3301C1212.86 81.3301 1212.08 80.5471 1212.08 79.5801Z" fill="white"/>
<path opacity="0.4" d="M1006.69 187.46C1006.69 186.493 1007.47 185.71 1008.44 185.71C1009.41 185.71 1010.19 186.493 1010.19 187.46C1010.19 188.426 1009.41 189.21 1008.44 189.21C1007.47 189.21 1006.69 188.426 1006.69 187.46Z" fill="white"/>
<path opacity="0.4" d="M1214.44 109.8C1214.44 108.833 1215.22 108.05 1216.19 108.05C1217.16 108.05 1217.94 108.833 1217.94 109.8C1217.94 110.766 1217.16 111.55 1216.19 111.55C1215.22 111.55 1214.44 110.766 1214.44 109.8Z" fill="white"/>
<path opacity="0.4" d="M1190.29 372.8C1190.29 371.833 1191.07 371.05 1192.04 371.05C1193.01 371.05 1193.79 371.833 1193.79 372.8C1193.79 373.766 1193.01 374.55 1192.04 374.55C1191.07 374.55 1190.29 373.766 1190.29 372.8Z" fill="white"/>
<path opacity="0.4" d="M1224.95 246.8C1224.95 245.833 1225.73 245.05 1226.7 245.05C1227.67 245.05 1228.45 245.833 1228.45 246.8C1228.45 247.766 1227.67 248.55 1226.7 248.55C1225.73 248.55 1224.95 247.766 1224.95 246.8Z" fill="white"/>
<path opacity="0.4" d="M1089.44 503.46C1089.44 502.49 1090.22 501.71 1091.19 501.71C1092.16 501.71 1092.94 502.49 1092.94 503.46C1092.94 504.43 1092.16 505.21 1091.19 505.21C1090.22 505.21 1089.44 504.43 1089.44 503.46Z" fill="white"/>
<path opacity="0.4" d="M1022.44 492.21C1022.44 491.24 1023.22 490.46 1024.19 490.46C1025.16 490.46 1025.94 491.24 1025.94 492.21C1025.94 493.18 1025.16 493.96 1024.19 493.96C1023.22 493.96 1022.44 493.18 1022.44 492.21Z" fill="white"/>
<path opacity="0.7" d="M1156.25 252.53L1157.37 246.52L1158.49 252.53L1160.72 250.99L1159.19 253.23L1165.2 254.35L1159.19 255.46L1160.72 257.7L1158.49 256.17L1157.37 262.17L1156.25 256.17L1154.01 257.7L1155.55 255.46L1149.54 254.35L1155.55 253.23L1154.01 250.99L1156.25 252.53Z" fill="#E1D1FF"/>
<path opacity="0.7" d="M1015.44 78.03L1016.56 72.03L1017.68 78.03L1019.92 76.5L1018.38 78.74L1024.39 79.85L1018.38 80.97L1019.92 83.21L1017.68 81.67L1016.56 87.68L1015.44 81.67L1013.21 83.21L1014.74 80.97L1008.73 79.85L1014.74 78.74L1013.21 76.5L1015.44 78.03Z" fill="#E1D1FF"/>
<path opacity="0.7" d="M966.67 393.19L967.78 387.18L968.9 393.19L971.14 391.66L969.6 393.89L975.61 395.01L969.6 396.13L971.14 398.37L968.9 396.83L967.78 402.84L966.67 396.83L964.43 398.37L965.96 396.13L959.95 395.01L965.96 393.89L964.43 391.66L966.67 393.19Z" fill="#E1D1FF"/>
<path opacity="0.7" d="M922.19 345.46L923.311 339.45L924.421 345.46L926.661 343.93L925.13 346.17L931.13 347.28L925.13 348.4L926.661 350.64L924.421 349.1L923.311 355.11L922.19 349.1L919.95 350.64L921.49 348.4L915.48 347.28L921.49 346.17L919.95 343.93L922.19 345.46Z" fill="#E1D1FF"/>
<path opacity="0.7" d="M1193.09 443.47L1194.21 437.46L1195.33 443.47L1197.57 441.93L1196.03 444.17L1202.04 445.29L1196.03 446.41L1197.57 448.64L1195.33 447.11L1194.21 453.12L1193.09 447.11L1190.86 448.64L1192.39 446.41L1186.38 445.29L1192.39 444.17L1190.86 441.93L1193.09 443.47Z" fill="#E1D1FF"/>
<path opacity="0.7" d="M1188.28 577.46L1189.4 571.45L1190.52 577.46L1192.76 575.93L1191.22 578.17L1197.23 579.28L1191.22 580.4L1192.76 582.64L1190.52 581.1L1189.4 587.11L1188.28 581.1L1186.05 582.64L1187.58 580.4L1181.57 579.28L1187.58 578.17L1186.05 575.93L1188.28 577.46Z" fill="#E1D1FF"/>
<path opacity="0.7" d="M760.55 82.73L761.66 76.72L762.78 82.73L765.02 81.2L763.48 83.43L769.49 84.55L763.48 85.67L765.02 87.91L762.78 86.37L761.66 92.38L760.55 86.37L758.31 87.91L759.84 85.67L753.83 84.55L759.84 83.43L758.31 81.2L760.55 82.73Z" fill="#E1D1FF"/>
<path opacity="0.7" d="M716.07 35L717.19 28.99L718.3 35L720.54 33.47L719.01 35.71L725.01 36.82L719.01 37.94L720.54 40.18L718.3 38.64L717.19 44.65L716.07 38.64L713.83 40.18L715.37 37.94L709.36 36.82L715.37 35.71L713.83 33.47L716.07 35Z" fill="#E1D1FF"/>
<path opacity="0.7" d="M578.55 76.73L579.66 70.72L580.78 76.73L583.02 75.2L581.48 77.43L587.49 78.55L581.48 79.67L583.02 81.91L580.78 80.37L579.66 86.38L578.55 80.37L576.31 81.91L577.84 79.67L571.83 78.55L577.84 77.43L576.31 75.2L578.55 76.73Z" fill="#E1D1FF"/>
<path opacity="0.7" d="M534.07 29L535.19 22.99L536.3 29L538.54 27.47L537.01 29.71L543.01 30.82L537.01 31.94L538.54 34.18L536.3 32.64L535.19 38.65L534.07 32.64L531.83 34.18L533.37 31.94L527.36 30.82L533.37 29.71L531.83 27.47L534.07 29Z" fill="#E1D1FF"/>
<path opacity="0.4" d="M385.297 84.015C386.199 83.668 387.212 84.117 387.559 85.019C387.906 85.921 387.456 86.934 386.554 87.281C385.652 87.628 384.64 87.178 384.292 86.276C383.945 85.374 384.395 84.362 385.297 84.015Z" fill="white"/>
<path opacity="0.7" d="M260.74 101.118L266.748 99.996L261.541 103.199L263.773 104.74L261.139 104.104L262.252 110.115L259.048 104.908L257.511 107.15L258.144 104.506L252.132 105.62L257.343 102.425L255.101 100.888L257.741 101.511L256.628 95.5L259.832 100.707L261.363 98.478L260.74 101.118Z" fill="#E1D1FF"/>
<path opacity="0.7" d="M289.311 42.464L295.322 41.351L290.112 44.545L292.344 46.087L289.704 45.463L290.823 51.461L287.623 46.264L286.082 48.496L286.715 45.853L280.707 46.975L285.914 43.771L283.672 42.234L286.316 42.867L285.203 36.855L288.397 42.066L289.935 39.824L289.311 42.464Z" fill="#E1D1FF"/>
<g filter="url(#filter3_f_253_395)">
<path d="M920.427 611.346C922.999 611.346 925.084 613.431 925.084 616.003C925.084 618.575 922.999 620.66 920.427 620.66C917.855 620.66 915.77 618.575 915.77 616.003C915.77 613.431 917.855 611.346 920.427 611.346Z" fill="#C5C6D0"/>
<path d="M939.662 597.765C943.391 597.765 946.414 600.788 946.414 604.518C946.414 608.247 943.391 611.27 939.662 611.27C935.932 611.27 932.909 608.247 932.909 604.518C932.909 600.788 935.932 597.765 939.662 597.765Z" fill="#F1F1F3"/>
<path fill-rule="evenodd" clip-rule="evenodd" d="M948.02 587.3C945.02 583.98 941.16 581.45 936.78 580.08C936.4 580.93 936.189 581.86 936.189 582.85C936.189 586.58 939.209 589.6 942.939 589.6C944.969 589.6 946.78 588.71 948.02 587.3Z" fill="#C5C6D0"/>
<path d="M923.448 585.283C925.116 585.283 926.467 586.634 926.467 588.301C926.467 589.969 925.116 591.32 923.448 591.32C921.781 591.32 920.43 589.969 920.43 588.301C920.43 586.634 921.781 585.283 923.448 585.283Z" fill="#C5C6D0"/>
</g>
<path d="M923.157 613.135C925.729 613.135 927.815 615.22 927.815 617.793C927.815 620.365 925.729 622.45 923.157 622.45C920.585 622.45 918.5 620.365 918.5 617.793C918.5 615.22 920.585 613.135 923.157 613.135Z" fill="#C5C6D0"/>
<path d="M942.382 599.545C946.111 599.545 949.135 602.568 949.135 606.298C949.135 610.027 946.111 613.05 942.382 613.05C938.653 613.05 935.63 610.027 935.63 606.298C935.63 602.568 938.653 599.545 942.382 599.545Z" fill="#F1F1F3"/>
<path fill-rule="evenodd" clip-rule="evenodd" d="M950.75 589.08C947.75 585.76 943.88 583.24 939.51 581.87C939.13 582.71 938.92 583.65 938.92 584.63C938.92 588.36 941.94 591.39 945.67 591.39C947.69 591.39 949.51 590.49 950.75 589.08Z" fill="#C5C6D0"/>
<path d="M926.179 587.072C927.846 587.072 929.198 588.424 929.198 590.091C929.198 591.758 927.846 593.11 926.179 593.11C924.512 593.11 923.16 591.758 923.16 590.091C923.16 588.424 924.512 587.072 926.179 587.072Z" fill="#C5C6D0"/>
<path d="M1113.97 626.25C1113.97 626.25 1115.34 619.11 1121.49 620.73C1121.49 620.73 1116.33 616.78 1118.31 612.11C1118.31 612.11 1115.96 617.39 1110.67 617.13C1110.67 617.13 1115.22 618.62 1113.97 626.25Z" fill="#6D75B0"/>
<path d="M1105.61 578.27C1105.61 578.27 1101.4 576.12 1103.53 572.57C1103.53 572.57 1100.12 575.08 1097.56 572.99C1097.56 572.99 1100.44 575.42 1099.32 578.68C1099.32 578.68 1101.07 576.1 1105.61 578.27Z" fill="white"/>
<g filter="url(#filter4_f_253_395)">
<path d="M1105.61 578.27C1105.61 578.27 1101.4 576.12 1103.53 572.57C1103.53 572.57 1100.12 575.08 1097.56 572.99C1097.56 572.99 1100.44 575.42 1099.32 578.68C1099.32 578.68 1101.07 576.1 1105.61 578.27Z" fill="white"/>
</g>
<path d="M1157.59 557.02C1157.59 557.02 1153.38 554.87 1155.5 551.32C1155.5 551.32 1152.1 553.83 1149.54 551.74C1149.54 551.74 1152.41 554.17 1151.29 557.43C1151.29 557.43 1153.05 554.86 1157.59 557.02Z" fill="#6D75B0"/>
</g>
<defs>
<filter id="filter0_f_253_395" x="1172.82" y="60.4609" width="78.7402" height="78.74" filterUnits="userSpaceOnUse" color-interpolation-filters="sRGB">
<feFlood flood-opacity="0" result="BackgroundImageFix"/>
<feBlend mode="normal" in="SourceGraphic" in2="BackgroundImageFix" result="shape"/>
<feGaussianBlur stdDeviation="7" result="effect1_foregroundBlur_253_395"/>
</filter>
<filter id="filter1_f_253_395" x="343.562" y="127.453" width="16.0469" height="14.1069" filterUnits="userSpaceOnUse" color-interpolation-filters="sRGB">
<feFlood flood-opacity="0" result="BackgroundImageFix"/>
<feBlend mode="normal" in="SourceGraphic" in2="BackgroundImageFix" result="shape"/>
<feGaussianBlur stdDeviation="2" result="effect1_foregroundBlur_253_395"/>
</filter>
<filter id="filter2_f_253_395" x="691.561" y="153.783" width="16.0498" height="14.1069" filterUnits="userSpaceOnUse" color-interpolation-filters="sRGB">
<feFlood flood-opacity="0" result="BackgroundImageFix"/>
<feBlend mode="normal" in="SourceGraphic" in2="BackgroundImageFix" result="shape"/>
<feGaussianBlur stdDeviation="2" result="effect1_foregroundBlur_253_395"/>
</filter>
<filter id="filter3_f_253_395" x="901.77" y="566.08" width="60.25" height="68.5801" filterUnits="userSpaceOnUse" color-interpolation-filters="sRGB">
<feFlood flood-opacity="0" result="BackgroundImageFix"/>
<feBlend mode="normal" in="SourceGraphic" in2="BackgroundImageFix" result="shape"/>
<feGaussianBlur stdDeviation="7" result="effect1_foregroundBlur_253_395"/>
</filter>
<filter id="filter4_f_253_395" x="1093.56" y="568.57" width="16.0498" height="14.1101" filterUnits="userSpaceOnUse" color-interpolation-filters="sRGB">
<feFlood flood-opacity="0" result="BackgroundImageFix"/>
<feBlend mode="normal" in="SourceGraphic" in2="BackgroundImageFix" result="shape"/>
<feGaussianBlur stdDeviation="2" result="effect1_foregroundBlur_253_395"/>
</filter>
<clipPath id="clip0_253_395">
<rect width="1352" height="696" fill="white"/>
</clipPath>
</defs>
</svg>
