<svg width="626" height="101" viewBox="0 0 626 101" fill="none" xmlns="http://www.w3.org/2000/svg">
<rect width="625.155" height="101" rx="10" fill="#333242"/>
<mask id="mask0_206_237" style="mask-type:alpha" maskUnits="userSpaceOnUse" x="0" y="0" width="626" height="101">
<rect width="625.155" height="101" rx="10" fill="#333242"/>
</mask>
<g mask="url(#mask0_206_237)">
<path d="M96.8689 43C96.8689 24.5275 137.822 7 163.811 0H0V101H148.847C155.148 84.5 140.971 72 126.008 66C111.045 60 96.8689 57.9421 96.8689 43Z" fill="#444359"/>
<path d="M333.556 34.785C307.068 17.6781 319.421 2.34081 328.909 -3.18945H625.156V46.2142C557.193 92.6684 511.885 58.7495 507.818 50.2697C503.752 41.79 499.686 13.0326 435.79 37.7345C371.893 62.4363 366.666 56.1687 333.556 34.785Z" fill="#9B9DB4" fill-opacity="0.49"/>
<path d="M411.198 104.189C411.198 122.979 387.25 138.21 357.709 138.21C329.049 138.21 305.653 123.874 304.283 105.861C304.198 104.751 304.114 103.589 303.948 102.489C298.075 63.479 325.448 77.5025 351.059 85.3133C355.341 86.6193 359.949 86.1304 364.104 84.4658C405.88 67.7316 411.198 86.2762 411.198 104.189Z" fill="#6C71A1"/>
</g>
</svg>
