<svg width="358" height="178" viewBox="0 0 358 178" fill="none" xmlns="http://www.w3.org/2000/svg">
<rect y="0.809753" width="358" height="176.38" rx="10" fill="#7583CA"/>
<mask id="mask0_206_239" style="mask-type:alpha" maskUnits="userSpaceOnUse" x="0" y="0" width="358" height="178">
<rect y="0.809753" width="358" height="176.38" rx="10" fill="#8E97FD"/>
</mask>
<g mask="url(#mask0_206_239)">
</g>
<mask id="mask1_206_239" style="mask-type:alpha" maskUnits="userSpaceOnUse" x="0" y="0" width="358" height="178">
<rect y="0.809753" width="358" height="176.38" rx="10" fill="#8E97FD"/>
</mask>
<g mask="url(#mask1_206_239)">
<path d="M337.542 44.2123L299.54 35.671C299.167 35.5898 298.93 35.2175 299.018 34.8453L303.803 13.5395C303.885 13.1673 304.257 12.9304 304.629 13.0184L342.632 21.5664C343.004 21.6476 343.241 22.0199 343.153 22.3921L338.361 43.6979C338.28 44.0634 337.914 44.3003 337.542 44.2123Z" fill="#ECECEC"/>
<path d="M299.648 35.1701C299.547 35.1498 299.486 35.0483 299.513 34.9535L304.305 13.6477C304.325 13.5462 304.426 13.4853 304.521 13.5124L342.524 22.0604C342.625 22.0807 342.686 22.1822 342.659 22.277L337.867 43.5828C337.847 43.6843 337.745 43.7452 337.651 43.7181L299.648 35.1701Z" fill="#F5F4F5"/>
<path d="M337.25 20.3546L309.961 14.216L309.975 13.7557L337.487 19.9417L337.25 20.3546Z" fill="#585857"/>
<path d="M337.282 20.3572L309.985 14.2186L309.874 14.7138L337.17 20.8525L337.282 20.3572Z" fill="#706F6E"/>
<path d="M307.33 17.2821L306.071 16.9978C305.915 16.964 305.813 16.8083 305.847 16.6459L306.044 15.7593C306.077 15.6036 306.233 15.5021 306.396 15.5359L307.654 15.8202C307.81 15.854 307.912 16.0097 307.878 16.1721L307.681 17.0587C307.641 17.2144 307.485 17.3159 307.33 17.2821Z" fill="#585857"/>
<path d="M306.125 16.7474C306.104 16.7406 306.091 16.7203 306.097 16.7L306.294 15.8134C306.301 15.7931 306.321 15.7795 306.341 15.7863L307.6 16.0706C307.62 16.0773 307.634 16.0976 307.627 16.1179L307.431 17.0046C307.424 17.0249 307.404 17.0384 307.383 17.0316L306.125 16.7474Z" fill="#5E5E5D"/>
<path d="M309.637 17.7965L308.378 17.5122C308.223 17.4784 308.121 17.3227 308.155 17.1603L308.351 16.2737C308.385 16.118 308.541 16.0165 308.703 16.0503L309.962 16.3346C310.118 16.3684 310.219 16.5241 310.185 16.6865L309.989 17.5731C309.948 17.7356 309.793 17.8303 309.637 17.7965Z" fill="#585857"/>
<path d="M308.432 17.2684C308.412 17.2616 308.398 17.2413 308.405 17.221L308.601 16.3344C308.608 16.3141 308.628 16.3005 308.649 16.3073L309.908 16.5916C309.928 16.5983 309.941 16.6186 309.935 16.6389L309.738 17.5255C309.732 17.5459 309.711 17.5594 309.691 17.5526L308.432 17.2684Z" fill="#5E5E5D"/>
<path d="M311.945 18.3175L310.686 18.0333C310.53 17.9994 310.429 17.8438 310.463 17.6814L310.659 16.7947C310.693 16.6391 310.848 16.5376 311.011 16.5714L312.27 16.8557C312.425 16.8895 312.527 17.0452 312.493 17.2076L312.297 18.0942C312.256 18.2499 312.1 18.3514 311.945 18.3175Z" fill="#585857"/>
<path d="M310.74 17.783C310.72 17.7762 310.706 17.7559 310.713 17.7356L310.909 16.849C310.916 16.8287 310.937 16.8151 310.957 16.8219L312.216 17.1061C312.236 17.1129 312.25 17.1332 312.243 17.1535L312.046 18.0401C312.04 18.0604 312.019 18.074 311.999 18.0672L310.74 17.783Z" fill="#5E5E5D"/>
<path d="M314.253 18.8316L312.995 18.5474C312.839 18.5135 312.737 18.3579 312.771 18.1955L312.967 17.3088C313.001 17.1532 313.157 17.0517 313.319 17.0855L314.578 17.3697C314.734 17.4036 314.835 17.5593 314.802 17.7217L314.605 18.6083C314.565 18.7707 314.409 18.8723 314.253 18.8316Z" fill="#585857"/>
<path d="M306.043 17.3026L307.599 17.6545C307.775 17.6951 307.89 17.8711 307.85 18.0539L307.505 19.5834C307.464 19.7594 307.288 19.8745 307.105 19.8338L305.549 19.4819C305.373 19.4413 305.258 19.2653 305.298 19.0826L305.643 17.553C305.684 17.3771 305.86 17.262 306.043 17.3026Z" fill="#585857"/>
<path d="M313.049 18.3039C313.029 18.2971 313.015 18.2768 313.022 18.2565L313.218 17.3699C313.225 17.3496 313.245 17.3361 313.265 17.3428L314.524 17.6271C314.545 17.6339 314.558 17.6542 314.551 17.6745L314.355 18.5611C314.348 18.5814 314.328 18.5949 314.308 18.5881L313.049 18.3039Z" fill="#5E5E5D"/>
<path d="M305.611 19.2309C305.57 19.2241 305.543 19.1767 305.55 19.1361L305.895 17.6066C305.902 17.566 305.949 17.5389 305.99 17.5457L307.546 17.8976C307.587 17.9044 307.614 17.9517 307.607 17.9923L307.262 19.5219C307.255 19.5625 307.208 19.5896 307.167 19.5828L305.611 19.2309Z" fill="#5E5E5D"/>
<path d="M316.554 19.353L315.295 19.0688C315.139 19.0349 315.038 18.8792 315.071 18.7168L315.268 17.8302C315.302 17.6745 315.457 17.573 315.62 17.6069L316.879 17.8911C317.034 17.925 317.136 18.0806 317.102 18.2431L316.906 19.1297C316.872 19.2921 316.716 19.3868 316.554 19.353Z" fill="#585857"/>
<path d="M315.356 18.8253C315.336 18.8185 315.323 18.7982 315.329 18.7779L315.526 17.8913C315.532 17.871 315.553 17.8574 315.573 17.8642L316.832 18.1484C316.852 18.1552 316.866 18.1755 316.859 18.1958L316.663 19.0824C316.656 19.1027 316.636 19.1163 316.615 19.1095L315.356 18.8253Z" fill="#5E5E5D"/>
<path d="M308.703 17.9044L310.259 18.2563C310.435 18.2969 310.551 18.4729 310.51 18.6556L310.165 20.1852C310.124 20.3612 309.948 20.4762 309.765 20.4356L308.209 20.0837C308.033 20.0431 307.918 19.8671 307.958 19.6844L308.304 18.1548C308.344 17.9721 308.52 17.8638 308.703 17.9044Z" fill="#585857"/>
<path d="M318.862 19.8739L317.603 19.5896C317.448 19.5558 317.346 19.4001 317.38 19.2377L317.576 18.3511C317.61 18.1954 317.766 18.0939 317.928 18.1277L319.187 18.412C319.343 18.4458 319.444 18.6015 319.41 18.7639L319.214 19.6505C319.18 19.8062 319.025 19.9077 318.862 19.8739Z" fill="#585857"/>
<path d="M308.27 19.8332C308.229 19.8265 308.202 19.7791 308.209 19.7385L308.554 18.2089C308.561 18.1683 308.608 18.1412 308.649 18.148L310.206 18.4999C310.246 18.5067 310.273 18.5541 310.267 18.5947L309.921 20.1243C309.915 20.1649 309.867 20.192 309.827 20.1852L308.27 19.8332Z" fill="#5E5E5D"/>
<path d="M317.664 19.3393C317.644 19.3325 317.63 19.3122 317.637 19.2919L317.833 18.4053C317.84 18.385 317.86 18.3715 317.881 18.3782L319.14 18.6625C319.16 18.6693 319.173 18.6896 319.167 18.7099L318.97 19.5965C318.964 19.6168 318.943 19.6303 318.923 19.6235L317.664 19.3393Z" fill="#5E5E5D"/>
<path d="M311.364 18.5005L312.921 18.8524C313.097 18.893 313.212 19.069 313.172 19.2517L312.826 20.7813C312.786 20.9573 312.61 21.0723 312.427 21.0317L310.87 20.6798C310.694 20.6392 310.579 20.4632 310.62 20.2805L310.965 18.7509C311.006 18.5749 311.189 18.4599 311.364 18.5005Z" fill="#585857"/>
<path d="M321.17 20.3885L319.911 20.1043C319.755 20.0704 319.654 19.9148 319.688 19.7523L319.884 18.8657C319.918 18.7101 320.073 18.6085 320.236 18.6424L321.495 18.9266C321.65 18.9605 321.752 19.1161 321.718 19.2786L321.522 20.1652C321.488 20.3276 321.326 20.4291 321.17 20.3885Z" fill="#585857"/>
<path d="M310.93 20.429C310.89 20.4222 310.862 20.3748 310.869 20.3342L311.214 18.8046C311.221 18.764 311.269 18.7369 311.309 18.7437L312.866 19.0957C312.906 19.1024 312.933 19.1498 312.927 19.1904L312.582 20.72C312.575 20.7606 312.527 20.7877 312.487 20.7809L310.93 20.429Z" fill="#5E5E5D"/>
<path d="M319.972 19.8607C319.952 19.8539 319.938 19.8336 319.945 19.8133L320.141 18.9267C320.148 18.9064 320.168 18.8929 320.189 18.8996L321.448 19.1839C321.468 19.1907 321.481 19.211 321.475 19.2313L321.278 20.1179C321.272 20.1382 321.251 20.1517 321.231 20.145L319.972 19.8607Z" fill="#5E5E5D"/>
<path d="M314.024 19.0962L315.58 19.4481C315.756 19.4887 315.871 19.6647 315.831 19.8474L315.486 21.377C315.445 21.553 315.269 21.668 315.086 21.6274L313.53 21.2755C313.354 21.2349 313.239 21.0589 313.279 20.8762L313.624 19.3466C313.665 19.1706 313.848 19.0556 314.024 19.0962Z" fill="#585857"/>
<path d="M323.478 20.9099L322.219 20.6256C322.063 20.5918 321.962 20.4361 321.996 20.2737L322.192 19.3871C322.226 19.2314 322.382 19.1299 322.544 19.1637L323.803 19.448C323.959 19.4818 324.06 19.6375 324.026 19.7999L323.83 20.6865C323.789 20.849 323.634 20.9437 323.478 20.9099Z" fill="#585857"/>
<path d="M313.59 21.0314C313.55 21.0246 313.523 20.9772 313.529 20.9366L313.875 19.407C313.881 19.3664 313.929 19.3394 313.969 19.3461L315.526 19.6981C315.567 19.7048 315.594 19.7522 315.587 19.7928L315.242 21.3224C315.235 21.363 315.188 21.3901 315.147 21.3833L313.59 21.0314Z" fill="#5E5E5D"/>
<path d="M322.28 20.3816C322.26 20.3748 322.246 20.3545 322.253 20.3342L322.449 19.4476C322.456 19.4273 322.476 19.4138 322.496 19.4205L323.755 19.7048C323.776 19.7115 323.789 19.7319 323.782 19.7522L323.586 20.6388C323.579 20.6591 323.559 20.6726 323.539 20.6658L322.28 20.3816Z" fill="#5E5E5D"/>
<path d="M325.787 21.4308L324.528 21.1465C324.372 21.1127 324.271 20.957 324.304 20.7946L324.501 19.908C324.534 19.7523 324.69 19.6508 324.853 19.6846L326.111 19.9689C326.267 20.0027 326.369 20.1584 326.335 20.3208L326.139 21.2074C326.098 21.3631 325.942 21.4646 325.787 21.4308Z" fill="#585857"/>
<path d="M316.683 19.6984L318.239 20.0503C318.415 20.0909 318.531 20.2669 318.49 20.4496L318.145 21.9792C318.104 22.1552 317.928 22.2702 317.745 22.2296L316.189 21.8777C316.013 21.8371 315.898 21.6611 315.938 21.4784L316.284 19.9488C316.331 19.7661 316.507 19.6578 316.683 19.6984Z" fill="#585857"/>
<path d="M305.481 19.7795L307.038 20.1315C307.214 20.1721 307.329 20.348 307.288 20.5308L306.943 22.0604C306.902 22.2363 306.726 22.3514 306.544 22.3108L304.987 21.9588C304.811 21.9182 304.696 21.7423 304.737 21.5595L305.089 20.0299C305.129 19.854 305.305 19.7389 305.481 19.7795Z" fill="#585857"/>
<path d="M324.581 20.8962C324.56 20.8894 324.547 20.8691 324.554 20.8488L324.75 19.9622C324.757 19.9419 324.777 19.9283 324.797 19.9351L326.056 20.2194C326.076 20.2261 326.09 20.2464 326.083 20.2667L325.887 21.1534C325.88 21.1737 325.86 21.1872 325.839 21.1804L324.581 20.8962Z" fill="#5E5E5D"/>
<path d="M316.249 21.6268C316.209 21.6201 316.182 21.5727 316.189 21.5321L316.534 20.0025C316.54 19.9619 316.588 19.9348 316.628 19.9416L318.185 20.2935C318.226 20.3003 318.253 20.3477 318.246 20.3883L317.901 21.9179C317.894 21.9585 317.847 21.9855 317.806 21.9788L316.249 21.6268Z" fill="#5E5E5D"/>
<path d="M305.048 21.7083C305.007 21.7015 304.98 21.6542 304.987 21.6136L305.332 20.084C305.339 20.0434 305.386 20.0163 305.427 20.0231L306.983 20.375C307.024 20.3818 307.051 20.4292 307.044 20.4698L306.699 21.9993C306.692 22.0399 306.645 22.067 306.604 22.0602L305.048 21.7083Z" fill="#5E5E5D"/>
<path d="M328.094 21.9454L326.835 21.6611C326.68 21.6273 326.578 21.4716 326.612 21.3092L326.808 20.4225C326.842 20.2669 326.998 20.1654 327.16 20.1992L328.419 20.4835C328.575 20.5173 328.676 20.673 328.642 20.8354L328.446 21.722C328.406 21.8844 328.25 21.986 328.094 21.9454Z" fill="#585857"/>
<path d="M319.343 20.2941L320.9 20.646C321.076 20.6866 321.191 20.8626 321.15 21.0453L320.805 22.5749C320.764 22.7509 320.588 22.8659 320.406 22.8253L318.849 22.4734C318.673 22.4328 318.558 22.2568 318.599 22.0741L318.944 20.5445C318.991 20.3685 319.167 20.2534 319.343 20.2941Z" fill="#585857"/>
<path d="M308.148 20.3818L309.705 20.7337C309.881 20.7743 309.996 20.9503 309.955 21.133L309.61 22.6626C309.569 22.8386 309.393 22.9536 309.211 22.913L307.654 22.5611C307.478 22.5205 307.363 22.3445 307.404 22.1618L307.749 20.6322C307.789 20.4495 307.965 20.3412 308.148 20.3818Z" fill="#585857"/>
<path d="M326.889 21.4175C326.868 21.4108 326.855 21.3905 326.862 21.3702L327.058 20.4835C327.065 20.4632 327.085 20.4497 327.105 20.4565L328.364 20.7407C328.384 20.7475 328.398 20.7678 328.391 20.7881L328.195 21.6747C328.188 21.695 328.168 21.7086 328.148 21.7018L326.889 21.4175Z" fill="#5E5E5D"/>
<path d="M318.909 22.223C318.868 22.2163 318.841 22.1689 318.848 22.1283L319.193 20.5987C319.2 20.5581 319.247 20.531 319.288 20.5378L320.844 20.8897C320.885 20.8965 320.912 20.9439 320.905 20.9845L320.56 22.514C320.553 22.5547 320.506 22.5817 320.465 22.575L318.909 22.223Z" fill="#5E5E5D"/>
<path d="M307.709 22.3107C307.669 22.3039 307.642 22.2565 307.648 22.2159L307.994 20.6863C308 20.6457 308.048 20.6187 308.088 20.6254L309.645 20.9774C309.686 20.9841 309.713 21.0315 309.706 21.0721L309.361 22.6017C309.354 22.6423 309.307 22.6694 309.266 22.6626L307.709 22.3107Z" fill="#5E5E5D"/>
<path d="M330.402 22.4662L329.143 22.182C328.987 22.1481 328.886 21.9925 328.92 21.83L329.116 20.9434C329.15 20.7878 329.305 20.6862 329.468 20.7201L330.727 21.0043C330.882 21.0382 330.984 21.1938 330.95 21.3563L330.754 22.2429C330.713 22.4053 330.557 22.5001 330.402 22.4662Z" fill="#585857"/>
<path d="M322.003 20.896L323.56 21.2479C323.736 21.2885 323.851 21.4645 323.81 21.6472L323.465 23.1768C323.424 23.3528 323.248 23.4678 323.066 23.4272L321.509 23.0753C321.333 23.0347 321.218 22.8587 321.259 22.676L321.604 21.1464C321.651 20.9636 321.827 20.8553 322.003 20.896Z" fill="#585857"/>
<path d="M310.808 20.9775L312.365 21.3294C312.541 21.37 312.656 21.546 312.615 21.7287L312.27 23.2583C312.23 23.4343 312.054 23.5493 311.871 23.5087L310.314 23.1568C310.138 23.1162 310.023 22.9402 310.064 22.7575L310.409 21.2279C310.45 21.0519 310.626 20.9369 310.808 20.9775Z" fill="#585857"/>
<path d="M329.196 21.9384C329.176 21.9316 329.162 21.9113 329.169 21.891L329.366 21.0044C329.372 20.9841 329.393 20.9706 329.413 20.9773L330.672 21.2616C330.692 21.2684 330.706 21.2887 330.699 21.309L330.503 22.1956C330.496 22.2159 330.475 22.2294 330.455 22.2227L329.196 21.9384Z" fill="#5E5E5D"/>
<path d="M321.569 22.8249C321.528 22.8181 321.501 22.7707 321.508 22.7301L321.853 21.2006C321.86 21.16 321.907 21.1329 321.948 21.1396L323.504 21.4916C323.545 21.4984 323.572 21.5457 323.565 21.5863L323.22 23.1159C323.213 23.1565 323.166 23.1836 323.125 23.1768L321.569 22.8249Z" fill="#5E5E5D"/>
<path d="M310.375 22.9064C310.335 22.8996 310.308 22.8522 310.315 22.8116L310.66 21.282C310.666 21.2414 310.714 21.2144 310.754 21.2211L312.311 21.5731C312.352 21.5798 312.379 21.6272 312.372 21.6678L312.027 23.1974C312.02 23.238 311.973 23.2651 311.932 23.2583L310.375 22.9064Z" fill="#5E5E5D"/>
<path d="M332.709 22.9877L331.45 22.7034C331.294 22.6696 331.193 22.5139 331.227 22.3515L331.423 21.4648C331.457 21.3092 331.613 21.2077 331.775 21.2415L333.034 21.5258C333.189 21.5596 333.291 21.7153 333.257 21.8777L333.061 22.7643C333.02 22.92 332.865 23.0215 332.709 22.9877Z" fill="#585857"/>
<path d="M324.669 21.4921L326.226 21.844C326.402 21.8846 326.517 22.0606 326.476 22.2433L326.131 23.7729C326.09 23.9489 325.914 24.0639 325.732 24.0233L324.175 23.6714C323.999 23.6308 323.884 23.4548 323.925 23.2721L324.27 21.7425C324.31 21.5665 324.486 21.4514 324.669 21.4921Z" fill="#585857"/>
<path d="M331.505 22.4527C331.485 22.4459 331.471 22.4256 331.478 22.4053L331.674 21.5187C331.681 21.4984 331.701 21.4849 331.721 21.4916L332.98 21.7759C333.001 21.7827 333.014 21.803 333.007 21.8233L332.811 22.7099C332.804 22.7302 332.784 22.7437 332.764 22.7369L331.505 22.4527Z" fill="#5E5E5D"/>
<path d="M313.467 21.573L315.024 21.925C315.2 21.9656 315.315 22.1416 315.275 22.3243L314.929 23.8539C314.889 24.0298 314.713 24.1449 314.53 24.1043L312.973 23.7524C312.797 23.7118 312.682 23.5358 312.723 23.353L313.068 21.8235C313.109 21.6475 313.285 21.5324 313.467 21.573Z" fill="#585857"/>
<path d="M324.229 23.4208C324.188 23.4141 324.161 23.3667 324.168 23.3261L324.513 21.7965C324.52 21.7559 324.567 21.7288 324.608 21.7356L326.165 22.0875C326.205 22.0943 326.232 22.1417 326.226 22.1823L325.88 23.7119C325.874 23.7525 325.826 23.7795 325.786 23.7728L324.229 23.4208Z" fill="#5E5E5D"/>
<path d="M335.018 23.5018L333.759 23.2176C333.603 23.1837 333.501 23.028 333.535 22.8656L333.732 21.979C333.765 21.8233 333.921 21.7218 334.084 21.7557L335.342 22.0399C335.498 22.0738 335.6 22.2294 335.566 22.3919L335.369 23.2785C335.329 23.4409 335.173 23.5424 335.018 23.5018Z" fill="#585857"/>
<path d="M313.035 23.5018C312.994 23.4951 312.967 23.4477 312.974 23.4071L313.319 21.8775C313.326 21.8369 313.373 21.8098 313.414 21.8166L314.97 22.1685C315.011 22.1753 315.038 22.2227 315.031 22.2633L314.686 23.7929C314.679 23.8335 314.632 23.8605 314.591 23.8538L313.035 23.5018Z" fill="#5E5E5D"/>
<path d="M333.813 22.9739C333.792 22.9672 333.779 22.9469 333.785 22.9266L333.982 22.0399C333.988 22.0196 334.009 22.0061 334.029 22.0129L335.288 22.2971C335.308 22.3039 335.322 22.3242 335.315 22.3445L335.119 23.2311C335.112 23.2514 335.092 23.265 335.071 23.2582L333.813 22.9739Z" fill="#5E5E5D"/>
<path d="M327.328 22.0873L328.885 22.4392C329.061 22.4798 329.176 22.6558 329.135 22.8385L328.79 24.3681C328.75 24.5441 328.574 24.6591 328.391 24.6185L326.834 24.2666C326.658 24.226 326.543 24.05 326.584 23.8673L326.929 22.3377C326.97 22.1617 327.146 22.0467 327.328 22.0873Z" fill="#585857"/>
<path d="M316.129 22.1753L317.685 22.5272C317.861 22.5678 317.976 22.7438 317.936 22.9265L317.591 24.4561C317.55 24.6321 317.374 24.7471 317.191 24.7065L315.635 24.3546C315.459 24.314 315.344 24.138 315.384 23.9552L315.729 22.4257C315.77 22.2429 315.953 22.1346 316.129 22.1753Z" fill="#585857"/>
<path d="M304.927 22.2564L306.484 22.6083C306.66 22.6489 306.775 22.8249 306.735 23.0077L306.389 24.5372C306.349 24.7132 306.173 24.8283 305.99 24.7876L304.433 24.4357C304.257 24.3951 304.142 24.2191 304.183 24.0364L304.528 22.5068C304.576 22.3308 304.751 22.2158 304.927 22.2564Z" fill="#585857"/>
<path d="M337.325 24.0227L336.066 23.7384C335.911 23.7046 335.809 23.5489 335.843 23.3865L336.039 22.4999C336.073 22.3442 336.229 22.2427 336.391 22.2765L337.65 22.5608C337.806 22.5946 337.907 22.7503 337.873 22.9127L337.677 23.7993C337.636 23.9618 337.481 24.0565 337.325 24.0227Z" fill="#585857"/>
<path d="M326.896 24.0227C326.856 24.0159 326.829 23.9686 326.836 23.928L327.181 22.3984C327.187 22.3578 327.235 22.3307 327.275 22.3375L328.832 22.6894C328.873 22.6962 328.9 22.7435 328.893 22.7842L328.548 24.3137C328.541 24.3543 328.494 24.3814 328.453 24.3746L326.896 24.0227Z" fill="#5E5E5D"/>
<path d="M315.695 24.1042C315.654 24.0975 315.627 24.0501 315.634 24.0095L315.979 22.4799C315.986 22.4393 316.033 22.4122 316.074 22.419L317.63 22.7709C317.671 22.7777 317.698 22.8251 317.691 22.8657L317.346 24.3953C317.339 24.4359 317.292 24.463 317.251 24.4562L315.695 24.1042Z" fill="#5E5E5D"/>
<path d="M304.493 24.1852C304.452 24.1784 304.425 24.131 304.432 24.0904L304.777 22.5609C304.784 22.5202 304.832 22.4932 304.872 22.4999L306.429 22.8519C306.469 22.8586 306.496 22.906 306.49 22.9466L306.145 24.4762C306.138 24.5168 306.09 24.5439 306.05 24.5371L304.493 24.1852Z" fill="#5E5E5D"/>
<path d="M336.121 23.4953C336.1 23.4885 336.087 23.4682 336.094 23.4479L336.29 22.5613C336.297 22.541 336.317 22.5275 336.337 22.5342L337.596 22.8185C337.616 22.8253 337.63 22.8456 337.623 22.8659L337.427 23.7525C337.42 23.7728 337.4 23.7863 337.379 23.7796L336.121 23.4953Z" fill="#5E5E5D"/>
<path d="M329.988 22.6898L331.545 23.0418C331.721 23.0824 331.836 23.2584 331.796 23.4411L331.45 24.9707C331.41 25.1466 331.234 25.2617 331.051 25.2211L329.494 24.8692C329.318 24.8285 329.203 24.6526 329.244 24.4698L329.589 22.9403C329.63 22.7575 329.806 22.6492 329.988 22.6898Z" fill="#585857"/>
<path d="M318.788 22.7706L320.344 23.1226C320.52 23.1632 320.635 23.3391 320.595 23.5219L320.25 25.0515C320.209 25.2274 320.033 25.3425 319.85 25.3019L318.294 24.9499C318.118 24.9093 318.003 24.7334 318.043 24.5506L318.388 23.021C318.429 22.8451 318.612 22.73 318.788 22.7706Z" fill="#585857"/>
<path d="M339.626 24.544L338.368 24.2597C338.212 24.2259 338.11 24.0702 338.144 23.9078L338.34 23.0212C338.374 22.8655 338.53 22.764 338.692 22.7978L339.951 23.0821C340.107 23.1159 340.208 23.2716 340.175 23.434L339.978 24.3206C339.945 24.4763 339.789 24.5778 339.626 24.544Z" fill="#585857"/>
<path d="M307.587 22.8519L309.143 23.2038C309.319 23.2444 309.434 23.4204 309.394 23.6031L309.049 25.1327C309.008 25.3087 308.832 25.4237 308.649 25.3831L307.093 25.0312C306.917 24.9906 306.802 24.8146 306.842 24.6319L307.187 23.1023C307.235 22.9263 307.411 22.818 307.587 22.8519Z" fill="#585857"/>
<path d="M329.556 24.6189C329.515 24.6121 329.488 24.5648 329.495 24.5241L329.84 22.9946C329.847 22.954 329.894 22.9269 329.935 22.9337L331.491 23.2856C331.532 23.2924 331.559 23.3397 331.552 23.3803L331.207 24.9099C331.2 24.9505 331.153 24.9776 331.112 24.9708L329.556 24.6189Z" fill="#5E5E5D"/>
<path d="M318.355 24.6999C318.314 24.6931 318.287 24.6457 318.294 24.6051L318.639 23.0756C318.646 23.035 318.693 23.0079 318.734 23.0146L320.291 23.3666C320.331 23.3734 320.358 23.4207 320.351 23.4613L320.006 24.9909C320 25.0315 319.952 25.0586 319.912 25.0518L318.355 24.6999Z" fill="#5E5E5D"/>
<path d="M338.429 24.0094C338.409 24.0026 338.395 23.9823 338.402 23.962L338.598 23.0754C338.605 23.0551 338.625 23.0416 338.646 23.0483L339.905 23.3326C339.925 23.3394 339.938 23.3597 339.932 23.38L339.735 24.2666C339.729 24.2869 339.708 24.3004 339.688 24.2936L338.429 24.0094Z" fill="#5E5E5D"/>
<path d="M307.153 24.7881C307.113 24.7813 307.086 24.7339 307.092 24.6933L307.438 23.1638C307.444 23.1231 307.492 23.0961 307.532 23.1028L309.089 23.4548C309.13 23.4615 309.157 23.5089 309.15 23.5495L308.805 25.0791C308.798 25.1197 308.751 25.1468 308.71 25.14L307.153 24.7881Z" fill="#5E5E5D"/>
<path d="M332.649 23.2851L334.205 23.637C334.381 23.6776 334.496 23.8536 334.456 24.0363L334.111 25.5659C334.07 25.7419 333.894 25.8569 333.711 25.8163L332.161 25.4644C331.985 25.4238 331.87 25.2478 331.911 25.0651L332.256 23.5355C332.29 23.3595 332.466 23.2445 332.649 23.2851Z" fill="#585857"/>
<path d="M321.447 23.3734L323.004 23.7253C323.18 23.7659 323.295 23.9419 323.254 24.1246L322.909 25.6542C322.868 25.8302 322.692 25.9452 322.51 25.9046L320.953 25.5527C320.777 25.5121 320.662 25.3361 320.703 25.1534L321.048 23.6238C321.095 23.4411 321.271 23.3328 321.447 23.3734Z" fill="#585857"/>
<path d="M310.246 23.4543L311.802 23.8063C311.978 23.8469 312.093 24.0229 312.053 24.2056L311.708 25.7352C311.667 25.9111 311.491 26.0262 311.308 25.9856L309.752 25.6336C309.576 25.593 309.461 25.4171 309.501 25.2343L309.847 23.7048C309.894 23.5288 310.07 23.4137 310.246 23.4543Z" fill="#585857"/>
<path d="M332.216 25.2144C332.175 25.2076 332.148 25.1602 332.155 25.1196L332.5 23.59C332.507 23.5494 332.554 23.5223 332.595 23.5291L334.151 23.881C334.192 23.8878 334.219 23.9352 334.212 23.9758L333.86 25.5054C333.854 25.546 333.806 25.5731 333.766 25.5663L332.216 25.2144Z" fill="#5E5E5D"/>
<path d="M321.014 25.3022C320.973 25.2955 320.946 25.2481 320.953 25.2075L321.298 23.6779C321.305 23.6373 321.353 23.6102 321.393 23.617L322.95 23.9689C322.99 23.9757 323.017 24.0231 323.011 24.0637L322.666 25.5933C322.659 25.6339 322.611 25.661 322.571 25.6542L321.014 25.3022Z" fill="#5E5E5D"/>
<path d="M309.813 25.3833C309.773 25.3765 309.746 25.3292 309.753 25.2885L310.098 23.759C310.104 23.7184 310.152 23.6913 310.192 23.6981L311.749 24.05C311.79 24.0568 311.817 24.1041 311.81 24.1447L311.465 25.6743C311.458 25.7149 311.411 25.742 311.37 25.7352L309.813 25.3833Z" fill="#5E5E5D"/>
<path d="M335.309 23.8878L336.865 24.2397C337.041 24.2803 337.156 24.4563 337.116 24.639L336.771 26.1686C336.73 26.3446 336.554 26.4596 336.371 26.419L334.815 26.0671C334.639 26.0265 334.524 25.8505 334.564 25.6678L334.909 24.1382C334.95 23.9555 335.133 23.8472 335.309 23.8878Z" fill="#585857"/>
<path d="M324.108 23.9685L325.664 24.3204C325.84 24.361 325.955 24.537 325.915 24.7197L325.57 26.2493C325.529 26.4253 325.353 26.5404 325.17 26.4997L323.614 26.1478C323.438 26.1072 323.323 25.9312 323.363 25.7485L323.708 24.2189C323.756 24.0429 323.932 23.9279 324.108 23.9685Z" fill="#585857"/>
<path d="M312.914 24.0499L314.47 24.4019C314.646 24.4425 314.761 24.6184 314.721 24.8012L314.376 26.3307C314.335 26.5067 314.159 26.6218 313.976 26.5812L312.42 26.2292C312.244 26.1886 312.129 26.0126 312.169 25.8299L312.514 24.3003C312.555 24.1244 312.731 24.0093 312.914 24.0499Z" fill="#585857"/>
<path d="M334.876 25.8168C334.835 25.81 334.808 25.7626 334.815 25.722L335.16 24.1924C335.167 24.1518 335.214 24.1248 335.255 24.1315L336.812 24.4835C336.852 24.4902 336.879 24.5376 336.872 24.5782L336.527 26.1078C336.521 26.1484 336.473 26.1755 336.433 26.1687L334.876 25.8168Z" fill="#5E5E5D"/>
<path d="M323.673 25.8977C323.633 25.8909 323.606 25.8436 323.612 25.803L323.958 24.2734C323.964 24.2328 324.012 24.2057 324.052 24.2125L325.609 24.5644C325.65 24.5712 325.677 24.6185 325.67 24.6592L325.325 26.1887C325.318 26.2293 325.271 26.2564 325.23 26.2496L323.673 25.8977Z" fill="#5E5E5D"/>
<path d="M312.474 25.9788C312.433 25.972 312.406 25.9246 312.413 25.884L312.758 24.3544C312.765 24.3138 312.812 24.2867 312.853 24.2935L314.409 24.6455C314.45 24.6522 314.477 24.6996 314.47 24.7402L314.125 26.2698C314.118 26.3104 314.071 26.3375 314.03 26.3307L312.474 25.9788Z" fill="#5E5E5D"/>
<path d="M337.968 24.4831L339.525 24.8351C339.701 24.8757 339.816 25.0517 339.775 25.2344L339.43 26.764C339.389 26.9399 339.213 27.055 339.031 27.0144L337.474 26.6625C337.298 26.6218 337.183 26.4459 337.224 26.2631L337.575 24.7336C337.609 24.5576 337.792 24.4425 337.968 24.4831Z" fill="#585857"/>
<path d="M326.768 24.5646L328.324 24.9165C328.5 24.9571 328.615 25.1331 328.575 25.3158L328.23 26.8454C328.189 27.0214 328.013 27.1364 327.83 27.0958L326.274 26.7439C326.098 26.7033 325.983 26.5273 326.023 26.3446L326.368 24.815C326.416 24.639 326.592 24.524 326.768 24.5646Z" fill="#585857"/>
<path d="M315.573 24.6527L317.13 25.0046C317.306 25.0452 317.421 25.2212 317.38 25.4039L317.035 26.9335C316.994 27.1095 316.818 27.2245 316.636 27.1839L315.079 26.832C314.903 26.7914 314.788 26.6154 314.828 26.4327L315.174 24.9031C315.214 24.7204 315.39 24.6121 315.573 24.6527Z" fill="#585857"/>
<path d="M304.371 24.7338L305.928 25.0858C306.104 25.1264 306.219 25.3023 306.178 25.4851L305.833 27.0146C305.793 27.1906 305.617 27.3057 305.434 27.2651L303.877 26.9131C303.701 26.8725 303.586 26.6965 303.627 26.5138L303.972 24.9842C304.013 24.8083 304.195 24.6932 304.371 24.7338Z" fill="#585857"/>
<path d="M337.535 26.4125C337.494 26.4057 337.467 26.3583 337.474 26.3177L337.819 24.7881C337.826 24.7475 337.873 24.7205 337.914 24.7272L339.471 25.0792C339.511 25.0859 339.538 25.1333 339.532 25.1739L339.186 26.7035C339.18 26.7441 339.132 26.7712 339.092 26.7644L337.535 26.4125Z" fill="#5E5E5D"/>
<path d="M326.333 26.4934C326.293 26.4866 326.266 26.4393 326.273 26.3987L326.618 24.8691C326.624 24.8285 326.672 24.8014 326.712 24.8082L328.269 25.1601C328.31 25.1669 328.337 25.2142 328.33 25.2549L327.985 26.7844C327.978 26.825 327.931 26.8521 327.89 26.8453L326.333 26.4934Z" fill="#5E5E5D"/>
<path d="M315.14 26.5811C315.099 26.5743 315.072 26.527 315.079 26.4864L315.424 24.9568C315.431 24.9162 315.478 24.8891 315.519 24.8959L317.076 25.2478C317.116 25.2546 317.143 25.302 317.137 25.3426L316.791 26.8721C316.785 26.9128 316.737 26.9398 316.697 26.9331L315.14 26.5811Z" fill="#5E5E5D"/>
<path d="M303.938 26.6626C303.898 26.6558 303.871 26.6085 303.878 26.5678L304.223 25.0383C304.229 24.9977 304.277 24.9706 304.317 24.9774L305.874 25.3293C305.915 25.3361 305.942 25.3834 305.935 25.424L305.59 26.9536C305.583 26.9942 305.536 27.0213 305.495 27.0145L303.938 26.6626Z" fill="#5E5E5D"/>
<path d="M329.427 25.1668L330.984 25.5188C331.16 25.5594 331.275 25.7353 331.234 25.9181L330.889 27.4477C330.848 27.6236 330.672 27.7387 330.49 27.6981L328.933 27.3461C328.757 27.3055 328.642 27.1296 328.682 26.9468L329.028 25.4172C329.075 25.2345 329.251 25.1262 329.427 25.1668Z" fill="#585857"/>
<path d="M318.233 25.2479L319.79 25.5999C319.966 25.6405 320.081 25.8164 320.04 25.9992L319.695 27.5287C319.654 27.7047 319.478 27.8198 319.296 27.7792L317.739 27.4272C317.563 27.3866 317.448 27.2106 317.489 27.0279L317.834 25.4983C317.874 25.3224 318.05 25.2073 318.233 25.2479Z" fill="#585857"/>
<path d="M307.031 25.3294L308.588 25.6813C308.764 25.7219 308.879 25.8979 308.839 26.0806L308.493 27.6102C308.453 27.7862 308.277 27.9013 308.094 27.8606L306.537 27.5087C306.361 27.4681 306.246 27.2921 306.287 27.1094L306.632 25.5798C306.673 25.4038 306.855 25.2888 307.031 25.3294Z" fill="#585857"/>
<path d="M328.994 27.0958C328.953 27.0891 328.926 27.0417 328.933 27.0011L329.278 25.4715C329.285 25.4309 329.332 25.4038 329.373 25.4106L330.929 25.7625C330.97 25.7693 330.997 25.8167 330.99 25.8573L330.645 27.3868C330.638 27.4275 330.591 27.4545 330.55 27.4478L328.994 27.0958Z" fill="#5E5E5D"/>
<path d="M317.799 27.1768C317.759 27.17 317.732 27.1226 317.738 27.082L318.084 25.5524C318.09 25.5118 318.138 25.4847 318.178 25.4915L319.735 25.8435C319.776 25.8502 319.803 25.8976 319.796 25.9382L319.451 27.4678C319.444 27.5084 319.397 27.5355 319.356 27.5287L317.799 27.1768Z" fill="#5E5E5D"/>
<path d="M306.599 27.2583C306.558 27.2515 306.531 27.2042 306.538 27.1635L306.883 25.634C306.89 25.5934 306.937 25.5663 306.978 25.5731L308.534 25.925C308.575 25.9318 308.602 25.9791 308.595 26.0197L308.25 27.5493C308.243 27.5899 308.196 27.617 308.155 27.6102L306.599 27.2583Z" fill="#5E5E5D"/>
<path d="M332.093 25.7624L333.65 26.1144C333.826 26.155 333.941 26.331 333.9 26.5137L333.555 28.0433C333.514 28.2192 333.338 28.3343 333.156 28.2937L331.599 27.9417C331.423 27.9011 331.308 27.7252 331.349 27.5424L331.694 26.0129C331.734 25.8369 331.91 25.7218 332.093 25.7624Z" fill="#585857"/>
<path d="M320.893 25.8433L322.45 26.1953C322.626 26.2359 322.741 26.4118 322.7 26.5946L322.355 28.1242C322.315 28.3001 322.139 28.4152 321.956 28.3746L320.399 28.0226C320.223 27.982 320.108 27.8061 320.149 27.6233L320.494 26.0937C320.535 25.9178 320.711 25.8095 320.893 25.8433Z" fill="#585857"/>
<path d="M309.692 25.9317L311.248 26.2837C311.424 26.3243 311.539 26.5002 311.499 26.683L311.154 28.2126C311.113 28.3885 310.937 28.5036 310.754 28.463L309.198 28.111C309.022 28.0704 308.907 27.8945 308.947 27.7117L309.299 26.1821C309.34 25.9994 309.516 25.8911 309.692 25.9317Z" fill="#585857"/>
<path d="M331.654 27.6913C331.613 27.6845 331.586 27.6371 331.593 27.5965L331.938 26.067C331.945 26.0263 331.992 25.9993 332.033 26.006L333.589 26.358C333.63 26.3647 333.657 26.4121 333.65 26.4527L333.305 27.9823C333.298 28.0229 333.251 28.05 333.21 28.0432L331.654 27.6913Z" fill="#5E5E5D"/>
<path d="M320.459 27.7792C320.419 27.7724 320.392 27.725 320.398 27.6844L320.744 26.1548C320.75 26.1142 320.798 26.0872 320.838 26.0939L322.395 26.4459C322.436 26.4526 322.463 26.5 322.456 26.5406L322.111 28.0702C322.104 28.1108 322.057 28.1379 322.016 28.1311L320.459 27.7792Z" fill="#5E5E5D"/>
<path d="M309.259 27.8602C309.218 27.8534 309.191 27.806 309.198 27.7654L309.543 26.2358C309.55 26.1952 309.597 26.1682 309.638 26.1749L311.194 26.5269C311.235 26.5336 311.262 26.581 311.255 26.6216L310.91 28.1512C310.903 28.1918 310.856 28.2189 310.815 28.2121L309.259 27.8602Z" fill="#5E5E5D"/>
<path d="M334.753 26.3647L336.31 26.7166C336.486 26.7573 336.601 26.9332 336.56 27.116L336.215 28.6455C336.174 28.8215 335.998 28.9366 335.816 28.896L334.259 28.544C334.083 28.5034 333.968 28.3274 334.009 28.1447L334.354 26.6151C334.394 26.4324 334.57 26.3241 334.753 26.3647Z" fill="#585857"/>
<path d="M323.552 26.4457L325.109 26.7976C325.285 26.8382 325.4 27.0142 325.36 27.197L325.014 28.7265C324.974 28.9025 324.798 29.0176 324.615 28.9769L323.058 28.625C322.882 28.5844 322.767 28.4084 322.808 28.2257L323.153 26.6961C323.194 26.5134 323.376 26.4051 323.552 26.4457Z" fill="#585857"/>
<path d="M312.351 26.5273L313.907 26.8793C314.083 26.9199 314.198 27.0958 314.158 27.2786L313.813 28.8082C313.772 28.9841 313.596 29.0992 313.413 29.0586L311.857 28.7066C311.681 28.666 311.566 28.4901 311.606 28.3073L311.951 26.7778C311.999 26.6018 312.175 26.4867 312.351 26.5273Z" fill="#585857"/>
<path d="M334.321 28.2936C334.281 28.2869 334.254 28.2395 334.26 28.1989L334.605 26.6693C334.612 26.6287 334.66 26.6016 334.7 26.6084L336.257 26.9603C336.297 26.9671 336.325 27.0145 336.318 27.0551L335.973 28.5847C335.966 28.6253 335.918 28.6523 335.878 28.6456L334.321 28.2936Z" fill="#5E5E5D"/>
<path d="M323.12 28.3748C323.079 28.368 323.052 28.3206 323.059 28.28L323.404 26.7504C323.411 26.7098 323.458 26.6827 323.499 26.6895L325.055 27.0415C325.096 27.0482 325.123 27.0956 325.116 27.1362L324.771 28.6658C324.764 28.7064 324.717 28.7335 324.676 28.7267L323.12 28.3748Z" fill="#5E5E5D"/>
<path d="M311.919 28.4561C311.878 28.4493 311.851 28.402 311.858 28.3614L312.203 26.8318C312.21 26.7912 312.257 26.7641 312.298 26.7709L313.855 27.1228C313.895 27.1296 313.922 27.177 313.915 27.2176L313.57 28.7471C313.564 28.7878 313.516 28.8148 313.476 28.8081L311.919 28.4561Z" fill="#5E5E5D"/>
<path d="M337.413 26.9606L338.97 27.3125C339.146 27.3531 339.261 27.5291 339.22 27.7118L338.875 29.2414C338.835 29.4174 338.659 29.5324 338.476 29.4918L336.919 29.1399C336.743 29.0993 336.628 28.9233 336.669 28.7406L337.014 27.211C337.055 27.035 337.231 26.92 337.413 26.9606Z" fill="#585857"/>
<path d="M326.212 27.0416L327.768 27.3935C327.944 27.4341 328.059 27.6101 328.019 27.7928L327.674 29.3224C327.633 29.4984 327.457 29.6134 327.274 29.5728L325.718 29.2209C325.542 29.1803 325.427 29.0043 325.467 28.8216L325.812 27.292C325.853 27.116 326.036 27.0009 326.212 27.0416Z" fill="#585857"/>
<path d="M324.547 29.2684L314.997 27.1229C314.821 27.0823 314.652 27.1906 314.612 27.3666L314.239 29.0112C314.212 29.133 314.287 29.2548 314.409 29.2819L324.046 31.4477C324.222 31.4883 324.405 31.3732 324.446 31.1973L324.791 29.6677C324.838 29.4917 324.73 29.309 324.547 29.2684Z" fill="#585857"/>
<path d="M336.98 28.8893C336.94 28.8826 336.913 28.8352 336.919 28.7946L337.265 27.265C337.271 27.2244 337.319 27.1973 337.359 27.2041L338.916 27.556C338.957 27.5628 338.984 27.6102 338.977 27.6508L338.632 29.1804C338.625 29.221 338.578 29.2481 338.537 29.2413L336.98 28.8893Z" fill="#5E5E5D"/>
<path d="M325.779 28.9703C325.738 28.9636 325.711 28.9162 325.718 28.8756L326.063 27.346C326.07 27.3054 326.117 27.2783 326.158 27.2851L327.714 27.637C327.755 27.6438 327.782 27.6912 327.775 27.7318L327.423 29.2614C327.417 29.302 327.369 29.329 327.329 29.3223L325.779 28.9703Z" fill="#5E5E5D"/>
<path d="M314.503 29.038L314.869 27.4204C314.876 27.3866 314.916 27.3595 314.95 27.3731L324.5 29.5185C324.54 29.5253 324.567 29.5727 324.561 29.6133L324.216 31.1429C324.209 31.1835 324.161 31.2105 324.121 31.2038L314.503 29.038Z" fill="#5E5E5D"/>
<path d="M328.872 27.6438L330.428 27.9957C330.604 28.0363 330.719 28.2123 330.679 28.395L330.334 29.9246C330.293 30.1006 330.117 30.2156 329.934 30.175L328.378 29.8231C328.202 29.7825 328.087 29.6065 328.127 29.4238L328.472 27.8942C328.52 27.7114 328.696 27.6032 328.872 27.6438Z" fill="#585857"/>
<path d="M328.438 29.5728C328.397 29.566 328.37 29.5254 328.377 29.478L328.722 27.9484C328.729 27.9078 328.776 27.8807 328.817 27.8875L330.374 28.2394C330.414 28.2462 330.441 28.2936 330.434 28.3342L330.089 29.8638C330.083 29.9044 330.035 29.9315 329.995 29.9247L328.438 29.5728Z" fill="#5E5E5D"/>
<path d="M331.532 28.2394L333.089 28.5913C333.265 28.6319 333.38 28.8079 333.339 28.9906L332.994 30.5202C332.953 30.6962 332.777 30.8112 332.595 30.7706L331.038 30.4187C330.862 30.3781 330.747 30.2021 330.787 30.0194L331.133 28.4898C331.18 28.3138 331.356 28.1988 331.532 28.2394Z" fill="#585857"/>
<path d="M331.098 30.1683C331.057 30.1615 331.03 30.1141 331.037 30.0735L331.382 28.5439C331.389 28.5033 331.436 28.4763 331.477 28.483L333.034 28.835C333.074 28.8417 333.101 28.8891 333.095 28.9297L332.749 30.4593C332.743 30.4999 332.695 30.527 332.655 30.5202L331.098 30.1683Z" fill="#5E5E5D"/>
<path d="M334.191 28.8351L335.748 29.187C335.924 29.2276 336.039 29.4036 335.998 29.5863L335.653 31.1159C335.612 31.2919 335.436 31.4069 335.254 31.3663L333.697 31.0144C333.521 30.9738 333.406 30.7978 333.447 30.6151L333.792 29.0855C333.839 28.9095 334.015 28.7945 334.191 28.8351Z" fill="#585857"/>
<path d="M333.758 30.7706C333.718 30.7639 333.691 30.7165 333.697 30.6759L334.042 29.1463C334.049 29.1057 334.097 29.0786 334.137 29.0854L335.694 29.4373C335.735 29.4441 335.762 29.4915 335.755 29.5321L335.41 31.0549C335.403 31.0955 335.355 31.1226 335.315 31.1158L333.758 30.7706Z" fill="#5E5E5D"/>
<path d="M336.859 29.4373L338.415 29.7893C338.591 29.8299 338.706 30.0059 338.666 30.1886L338.321 31.7182C338.28 31.8941 338.104 32.0092 337.921 31.9686L336.365 31.6166C336.189 31.576 336.074 31.4001 336.114 31.2173L336.459 29.6878C336.5 29.505 336.676 29.3967 336.859 29.4373Z" fill="#585857"/>
<path d="M325.658 29.5189L327.215 29.8708C327.391 29.9115 327.506 30.0874 327.465 30.2702L327.12 31.7997C327.079 31.9757 326.903 32.0908 326.721 32.0502L325.164 31.6982C324.988 31.6576 324.873 31.4816 324.913 31.2989L325.259 29.7693C325.299 29.5934 325.475 29.4783 325.658 29.5189Z" fill="#585857"/>
<path d="M336.418 31.3662C336.378 31.3594 336.351 31.3121 336.357 31.2715L336.703 29.7419C336.709 29.7013 336.757 29.6742 336.797 29.681L338.354 30.0329C338.395 30.0397 338.422 30.0871 338.415 30.1277L338.07 31.6572C338.063 31.6978 338.016 31.7249 337.975 31.7181L336.418 31.3662Z" fill="#5E5E5D"/>
<path d="M325.224 31.4478C325.183 31.441 325.156 31.3936 325.163 31.353L325.508 29.8234C325.515 29.7828 325.562 29.7557 325.603 29.7625L327.16 30.1144C327.2 30.1212 327.227 30.1686 327.221 30.2092L326.875 31.7388C326.869 31.7794 326.821 31.8065 326.781 31.7997L325.224 31.4478Z" fill="#5E5E5D"/>
<path d="M328.317 30.1212L329.874 30.4731C330.05 30.5137 330.165 30.6897 330.124 30.8724L329.779 32.402C329.738 32.578 329.562 32.693 329.38 32.6524L327.823 32.3005C327.647 32.2599 327.532 32.0839 327.573 31.9012L327.918 30.3716C327.958 30.1889 328.141 30.0806 328.317 30.1212Z" fill="#585857"/>
<path d="M327.884 32.0501C327.844 32.0433 327.817 31.996 327.823 31.9554L328.168 30.4258C328.175 30.3852 328.223 30.3581 328.263 30.3649L329.82 30.7168C329.86 30.7236 329.888 30.7709 329.881 30.8116L329.536 32.3411C329.529 32.3817 329.481 32.4088 329.441 32.402L327.884 32.0501Z" fill="#5E5E5D"/>
<path d="M330.976 30.7168L332.533 31.0687C332.709 31.1093 332.824 31.2853 332.783 31.468L332.438 32.9976C332.398 33.1736 332.222 33.2886 332.039 33.248L330.482 32.8961C330.306 32.8555 330.191 32.6795 330.232 32.4968L330.577 30.9672C330.618 30.7912 330.8 30.6762 330.976 30.7168Z" fill="#585857"/>
<path d="M330.543 32.6456C330.503 32.6389 330.476 32.5915 330.482 32.5509L330.828 31.0213C330.834 30.9807 330.882 30.9536 330.922 30.9604L332.479 31.3123C332.52 31.3191 332.547 31.3665 332.54 31.4071L332.195 32.9367C332.188 32.9773 332.147 33.0043 332.1 32.9976L330.543 32.6456Z" fill="#5E5E5D"/>
<path d="M333.636 31.312L335.193 31.6639C335.369 31.7045 335.484 31.8805 335.444 32.0633L335.098 33.5928C335.058 33.7688 334.882 33.8839 334.699 33.8432L333.142 33.4913C332.966 33.4507 332.851 33.2747 332.892 33.092L333.237 31.5624C333.285 31.3864 333.46 31.2714 333.636 31.312Z" fill="#585857"/>
<path d="M333.204 33.2412C333.163 33.2344 333.136 33.1871 333.143 33.1465L333.488 31.6169C333.495 31.5763 333.542 31.5492 333.583 31.556L335.139 31.9079C335.18 31.9147 335.207 31.9621 335.2 32.0027L334.855 33.5322C334.848 33.5728 334.801 33.5999 334.76 33.5931L333.204 33.2412Z" fill="#5E5E5D"/>
<path d="M324.127 33.3357L316.317 31.5828C315.83 31.4745 315.342 31.779 315.234 32.2663L314.293 36.4422C314.185 36.9295 314.49 37.4168 314.977 37.5251L322.787 39.278C323.275 39.3863 323.762 39.0818 323.87 38.5945L324.811 34.4186C324.919 33.9313 324.615 33.4507 324.127 33.3357ZM323.626 38.5403C323.545 38.8923 323.2 39.1156 322.848 39.0344L315.038 37.2815C314.686 37.2002 314.463 36.8551 314.544 36.5031L315.485 32.3273C315.566 31.9753 315.911 31.752 316.263 31.8332L324.073 33.5861C324.425 33.6673 324.648 34.0125 324.567 34.3644L323.626 38.5403Z" fill="#9D9B9B"/>
<path d="M324.066 33.5861L316.256 31.8332C315.904 31.752 315.552 31.9753 315.477 32.3273L314.537 36.5032C314.455 36.8551 314.679 37.207 315.031 37.2815L322.841 39.0344C323.193 39.1156 323.545 38.8923 323.619 38.5403L324.56 34.3645C324.641 34.0125 324.418 33.6674 324.066 33.5861Z" fill="#EDEDED"/>
<path d="M336.297 31.9147L337.853 32.2666C338.029 32.3072 338.144 32.4832 338.104 32.6659L337.758 34.1955C337.718 34.3715 337.542 34.4865 337.359 34.4459L335.803 34.094C335.627 34.0534 335.512 33.8774 335.552 33.6947L335.897 32.1651C335.945 31.9824 336.121 31.8741 336.297 31.9147Z" fill="#585857"/>
<path d="M335.865 33.8436C335.824 33.8369 335.797 33.7895 335.804 33.7489L336.149 32.2193C336.156 32.1787 336.203 32.1516 336.244 32.1584L337.8 32.5103C337.841 32.5171 337.868 32.5645 337.861 32.6051L337.516 34.1347C337.509 34.1753 337.462 34.2023 337.421 34.1956L335.865 33.8436Z" fill="#5E5E5D"/>
<path d="M319.512 35.4544L315.005 34.4392L314.545 36.4967C314.463 36.8486 314.687 37.2006 315.039 37.275L318.91 38.1481L319.512 35.4544Z" fill="#D9D9DA"/>
<path d="M315.005 34.4456L314.545 36.503C314.463 36.855 314.687 37.2069 315.039 37.2814L322.849 39.0343C323.201 39.1155 323.553 38.8922 323.627 38.5402L324.087 36.4827L315.005 34.4456Z" fill="#DFDFDE"/>
<path d="M41.8408 81.0488L41.1323 77.0292L37.023 77.7295C36.3712 75.8527 35.3084 74.2 33.9339 72.8555L36.3428 69.4801L32.9704 67.1411L30.5757 70.5025C28.8469 69.6622 26.9198 69.2 24.9077 69.214L24.185 65.1383L20.1182 65.8386L20.8267 69.9003C18.9279 70.5445 17.2559 71.5949 15.8955 72.9535L12.4806 70.5725L10.1142 73.9059L13.515 76.2729C12.6648 77.9816 12.1972 79.8863 12.2113 81.8752L8.11621 82.5754L8.82471 86.5951L12.934 85.8948C13.5858 87.7716 14.6486 89.4242 16.0231 90.7688L13.6142 94.1442L16.9866 96.4831L19.3814 93.1218C21.1101 93.9621 23.0372 94.4243 25.0494 94.4103L25.772 98.486L29.8388 97.7857L29.1303 93.724C31.0291 93.0797 32.7012 92.0293 34.0615 90.6708L37.4764 93.0517L39.8428 89.7184L36.442 87.3514C37.2922 85.6427 37.7598 83.7379 37.7457 81.7491L41.8408 81.0488ZM25.6303 85.5447C23.5473 85.9088 21.5635 84.5222 21.1951 82.4634C20.8267 80.4046 22.2295 78.4438 24.3125 78.0796C26.3955 77.7155 28.3793 79.102 28.7477 81.1609C29.1161 83.2197 27.7275 85.1805 25.6303 85.5447Z" fill="#9BA3FF"/>
<path d="M80.4488 68.7743V65.7661H77.4073C77.1823 64.3162 76.624 62.9829 75.8073 61.833L77.9656 59.6748L75.8407 57.5499L73.6908 59.6998C72.5492 58.8748 71.2242 58.2998 69.7743 58.0582V55H66.7661V58.0415C65.3162 58.2665 63.9746 58.8248 62.833 59.6414L60.6748 57.4832L58.5499 59.6081L60.6998 61.758C59.8748 62.8996 59.2998 64.2245 59.0582 65.6745H56V68.6827H59.0415C59.2665 70.1326 59.8248 71.4658 60.6414 72.6158L58.4832 74.774L60.6081 76.8989L62.758 74.749C63.8996 75.574 65.2245 76.1489 66.6745 76.3906V79.4488H69.6827V76.4073C71.1326 76.1823 72.4658 75.624 73.6158 74.8073L75.774 76.9656L77.8989 74.8407L75.749 72.6908C76.574 71.5492 77.1489 70.2242 77.3906 68.7743H80.4488ZM68.2244 70.0243C66.6828 70.0243 65.4245 68.7743 65.4245 67.2244C65.4245 65.6828 66.6745 64.4245 68.2244 64.4245C69.766 64.4245 71.0243 65.6745 71.0243 67.2244C71.0159 68.766 69.766 70.0243 68.2244 70.0243Z" fill="#AEB4FC"/>
<path d="M65.7438 35.9404C69.635 26.6349 65.2459 15.9369 55.9404 12.0457C46.635 8.15445 35.9369 12.5436 32.0457 21.849C28.1545 31.1545 32.5436 41.8525 41.849 45.7438C51.1545 49.635 61.8525 45.2459 65.7438 35.9404Z" fill="#AEB4FC"/>
<path d="M48.7771 6.69318C36.4765 6.69318 26.5112 16.6585 26.5112 28.959C26.5112 41.2526 36.4765 51.2249 48.7771 51.2249C61.0706 51.2249 71.0429 41.2596 71.0429 28.959C71.0359 16.6585 61.0706 6.69318 48.7771 6.69318ZM48.7771 47.459C38.5593 47.459 30.2771 39.1768 30.2771 28.959C30.2771 18.7413 38.5593 10.4591 48.7771 10.4591C58.9948 10.4591 67.277 18.7413 67.277 28.959C67.277 39.1768 58.9948 47.459 48.7771 47.459Z" fill="#808AFF"/>
<path d="M56.4401 34.6347C56.3283 34.6347 56.2164 34.606 56.1177 34.5344L48.6501 29.6997C48.4592 29.578 48.3408 29.3488 48.3408 29.1053V16.1125C48.3408 15.7329 48.6237 15.4249 48.9724 15.4249C49.3212 15.4249 49.6041 15.7329 49.6041 16.1125V28.7185L56.7625 33.3526C57.0652 33.546 57.1639 33.9686 56.9796 34.298C56.8678 34.5129 56.6572 34.6347 56.4401 34.6347Z" fill="#808AFF"/>
<path d="M32.6235 28.5225C32.6235 29.6836 34.3699 29.6898 34.3699 28.5225C34.3699 27.3614 32.6235 27.3551 32.6235 28.5225Z" fill="#808AFF"/>
<path d="M65.8041 28.9573C65.8041 27.218 63.1846 27.2086 63.1846 28.9573C63.1846 30.706 65.8041 30.706 65.8041 28.9573Z" fill="#808AFF"/>
<path d="M48.777 45.1127C50.5187 45.1127 50.5281 43.3664 48.777 43.3664C47.0354 43.3664 47.026 45.1127 48.777 45.1127Z" fill="#808AFF"/>
</g>
<g clip-path="url(#clip0_206_239)">
<path d="M313.262 55.875H306.391V90.3693H313.262V55.875Z" fill="#9BA3FF"/>
<path d="M324.03 67.4697H317.159V90.3687H324.03V67.4697Z" fill="#9BA3FF"/>
<path d="M334.812 78.3977H327.941V90.3693H334.812V78.3977Z" fill="#9BA3FF"/>
</g>
<path d="M59.4996 130.811C58.0486 124.677 51.9149 120.894 45.8141 122.351C39.7051 123.808 35.9374 129.966 37.3884 136.092C38.4107 140.397 41.7414 143.542 45.7481 144.527C45.979 145.14 46.4077 148.857 47.1744 150.049C47.5207 150.587 47.9576 150.678 48.6254 150.537C49.1613 152.449 51.4037 154.204 53.2504 154.03C54.5448 153.906 55.4846 153.012 55.9051 151.812C56.2349 150.876 56.4987 149.8 56.6636 148.757C57.554 148.732 57.9827 148.641 57.9414 147.805C57.8672 146.357 56.3008 142.367 56.2431 141.754C59.0874 139.047 60.4724 134.925 59.4996 130.811Z" fill="#FDFFFC"/>
<path d="M53.5883 130.397C53.4152 129.776 52.8051 129.362 52.162 129.52C51.5602 129.66 51.1068 130.331 51.2881 130.952C51.3953 131.333 51.6756 131.639 52.0136 131.78C51.7663 133.386 51.453 134.967 51.3211 136.589C51.1974 138.096 51.0738 139.569 50.744 141.034C48.955 138.344 47.1742 135.662 45.2039 133.104C45.748 132.583 45.3358 131.415 44.4206 131.631C43.3406 131.887 43.7364 133.576 44.8246 133.319C44.8329 133.319 44.8411 133.311 44.8493 133.303C46.8939 136.208 48.8973 139.155 50.5626 142.301C50.744 142.64 51.2387 142.566 51.3541 142.218C51.8982 140.596 52.0549 138.94 52.1703 137.243C52.3022 135.414 52.6567 133.617 52.8051 131.796C53.3575 131.614 53.7532 130.985 53.5883 130.397Z" fill="#AEB4FC"/>
<path d="M39.8602 120.398C37.5601 119.255 35.2517 118.105 32.9515 116.954C32.4733 116.722 32.0364 117.409 32.5146 117.666C34.757 118.908 37.0077 120.141 39.2501 121.383C39.9097 121.747 40.5198 120.729 39.8602 120.398Z" fill="#808AFF"/>
<path d="M44.189 111.623C43.9994 111.201 43.4553 111.507 43.4965 111.888C43.7768 114.272 44.6589 116.705 45.3514 119.007C45.5246 119.57 46.3902 119.379 46.2501 118.791C45.6812 116.424 45.1866 113.85 44.189 111.623Z" fill="#808AFF"/>
<path d="M54.907 110.928C54.3135 111.449 53.9507 112.277 53.5797 112.972C53.1922 113.701 52.846 114.446 52.5162 115.199C52.2524 115.812 53.2664 116.134 53.522 115.505C53.827 114.736 54.1568 113.991 54.536 113.254C54.8576 112.616 55.3275 111.996 55.5171 111.308C55.6243 110.936 55.1791 110.679 54.907 110.928Z" fill="#808AFF"/>
<g clip-path="url(#clip1_206_239)">
<path d="M314.736 152.143L337.351 144.563L326.015 111.287L303.4 118.867C302.514 119.163 302.033 120.115 302.34 120.994L312.592 151.084C312.89 151.963 313.85 152.439 314.736 152.143Z" fill="#3F4553"/>
<path d="M314.753 151.486L337.931 143.717L327.008 111.665L303.83 119.434C303.259 119.622 302.952 120.238 303.143 120.813L313.361 150.805C313.56 151.371 314.181 151.675 314.753 151.486Z" fill="#DDDDE3"/>
<path d="M315.241 151.322L338.42 143.553L327.497 111.501L304.319 119.27C303.748 119.458 303.441 120.074 303.632 120.649L313.85 150.641C314.049 151.207 314.67 151.519 315.241 151.322Z" fill="#E2E5FF"/>
<path d="M316.492 151.552L339.107 143.972L327.77 110.704L305.155 118.284C304.269 118.579 303.789 119.532 304.095 120.411L314.347 150.501C314.645 151.379 315.606 151.848 316.492 151.552Z" fill="#4E5567"/>
<path d="M326.503 111.129L326.016 111.292L337.353 144.569L337.84 144.406L326.503 111.129Z" fill="#3F4553"/>
<path d="M329.733 137.123L330.238 136.055L331.298 136.597L323.017 112.297C322.868 111.87 322.495 111.903 322.065 112.051C321.634 112.198 321.311 112.396 321.46 112.823L329.733 137.123Z" fill="#93BFA8"/>
<path d="M278.92 119.952L294.141 102.055L291.065 99.4816L275.844 117.379L278.92 119.952Z" fill="#3F4553"/>
<path d="M275.84 117.373L278.913 119.943L274.474 122.366C274.325 122.448 274.126 122.275 274.176 122.119L275.84 117.373Z" fill="#F2EDE4"/>
<path d="M274.483 122.374L275.683 121.717L274.64 120.838L274.193 122.119C274.135 122.275 274.334 122.448 274.483 122.374Z" fill="#3F4553"/>
<path d="M277.901 119.099L293.121 101.202L292.077 100.329L276.856 118.226L277.901 119.099Z" fill="#4E5567"/>
</g>
<path d="M177.003 152.349C215.665 152.349 247.006 146.898 247.006 140.174C247.006 133.451 215.665 128 177.003 128C138.341 128 107 133.451 107 140.174C107 146.898 138.341 152.349 177.003 152.349Z" fill="#808AFF"/>
<defs>
<clipPath id="clip0_206_239">
<rect width="28.4071" height="34.4943" fill="white" transform="translate(306.391 55.875)"/>
</clipPath>
<clipPath id="clip1_206_239">
<rect width="64.9305" height="52.756" fill="white" transform="translate(274.176 99.478)"/>
</clipPath>
</defs>
</svg>
