<svg width="365" height="75" viewBox="0 0 365 75" fill="none" xmlns="http://www.w3.org/2000/svg">
<rect width="365" height="75" rx="10" fill="#F1DDCF"/>
<mask id="mask0_109_683" style="mask-type:alpha" maskUnits="userSpaceOnUse" x="0" y="0" width="365" height="75">
<rect width="365" height="75" rx="10" fill="#333242"/>
</mask>
<g mask="url(#mask0_109_683)">
<path d="M73.5705 49.0099C64.8342 44.5545 56.5574 43.0263 56.5574 31.9307C56.5574 21.9877 52.7307 0 42.7877 0H10C4.47715 0 0 4.47715 0 10V65C0 70.5229 4.47714 75 9.99999 75H79.4665C83.8818 75 88.091 72.0512 87.7442 67.6495C87.0659 59.0409 80.4611 52.524 73.5705 49.0099Z" fill="#ECD3C2"/>
<path d="M194.748 25.8304C181.519 14.9643 184.884 5.05969 189.6 -0.147975C191.04 -1.73758 193.193 -2.36842 195.337 -2.36842H355C360.523 -2.36842 365 2.10622 365 7.62907V29.7639C365 32.6588 363.758 35.4342 361.495 37.2393C323.767 67.3315 298.796 43.4385 296.492 37.329C294.118 31.0322 291.744 9.6777 254.438 28.0206C217.132 46.3636 214.08 41.7094 194.748 25.8304Z" fill="#FAC978"/>
<path d="M240.08 77.3683C240.08 91.3207 226.098 102.631 208.85 102.631C191.602 102.631 177.62 91.3207 177.62 77.3683C173.598 46.9965 189.636 57.3608 204.735 63.2606C207.332 64.2757 210.236 63.9126 212.724 62.6513C236.987 50.3482 240.08 64.0918 240.08 77.3683Z" fill="#FF7C6B"/>
</g>
</svg>
